<?xml version="1.0" encoding="UTF-8" standalone="no"?>
<!DOCTYPE svg PUBLIC "-//W3C//DTD SVG 1.1//EN"
 "http://www.w3.org/Graphics/SVG/1.1/DTD/svg11.dtd">
<!-- Generated by graphviz version 2.43.0 (0)
 -->
<!-- Title: system_overview Pages: 1 -->
<svg width="3659pt" height="2928pt"
 viewBox="0.00 0.00 1317.40 1054.03" xmlns="http://www.w3.org/2000/svg" xmlns:xlink="http://www.w3.org/1999/xlink">
<g id="graph0" class="graph" transform="scale(2.78 2.78) rotate(0) translate(43.2 1010.83)">
<title>system_overview</title>
<polygon fill="white" stroke="transparent" points="-43.2,43.2 -43.2,-1010.83 1274.2,-1010.83 1274.2,43.2 -43.2,43.2"/>
<text text-anchor="middle" x="615.5" y="-954.02" font-family="Helvetica,sans-Serif" font-size="12.00">The Valve Wire — System Overview</text>
<g id="clust1" class="cluster">
<title>cluster_sources</title>
<path fill="#f0f9ff" stroke="#2563eb" d="M20,-769.62C20,-769.62 970,-769.62 970,-769.62 976,-769.62 982,-775.62 982,-781.62 982,-781.62 982,-830.62 982,-830.62 982,-836.62 976,-842.62 970,-842.62 970,-842.62 20,-842.62 20,-842.62 14,-842.62 8,-836.62 8,-830.62 8,-830.62 8,-781.62 8,-781.62 8,-775.62 14,-769.62 20,-769.62"/>
<text text-anchor="middle" x="495" y="-829.02" font-family="Helvetica,sans-Serif" font-size="12.00" fill="#2563eb">Data Sources</text>
</g>
<g id="clust2" class="cluster">
<title>cluster_processing</title>
<path fill="#fffbeb" stroke="#d97706" d="M573,-380C573,-380 643,-380 643,-380 649,-380 655,-386 655,-392 655,-392 655,-725.62 655,-725.62 655,-731.62 649,-737.62 643,-737.62 643,-737.62 573,-737.62 573,-737.62 567,-737.62 561,-731.62 561,-725.62 561,-725.62 561,-392 561,-392 561,-386 567,-380 573,-380"/>
<text text-anchor="middle" x="608" y="-724.02" font-family="Helvetica,sans-Serif" font-size="12.00" fill="#d97706">Processing</text>
</g>
<g id="clust3" class="cluster">
<title>cluster_knowledge</title>
<path fill="#fefce8" stroke="#ca8a04" d="M675,-568.62C675,-568.62 884,-568.62 884,-568.62 890,-568.62 896,-574.62 896,-580.62 896,-580.62 896,-629.62 896,-629.62 896,-635.62 890,-641.62 884,-641.62 884,-641.62 675,-641.62 675,-641.62 669,-641.62 663,-635.62 663,-629.62 663,-629.62 663,-580.62 663,-580.62 663,-574.62 669,-568.62 675,-568.62"/>
<text text-anchor="middle" x="779.5" y="-628.02" font-family="Helvetica,sans-Serif" font-size="12.00" fill="#ca8a04">Knowledge Base</text>
</g>
<g id="clust4" class="cluster">
<title>cluster_delivery</title>
<path fill="#ecfdf5" stroke="#059669" d="M395,-275C395,-275 766,-275 766,-275 772,-275 778,-281 778,-287 778,-287 778,-336 778,-336 778,-342 772,-348 766,-348 766,-348 395,-348 395,-348 389,-348 383,-342 383,-336 383,-336 383,-287 383,-287 383,-281 389,-275 395,-275"/>
<text text-anchor="middle" x="580.5" y="-334.4" font-family="Helvetica,sans-Serif" font-size="12.00" fill="#059669">Delivery</text>
</g>
<g id="clust5" class="cluster">
<title>cluster_website</title>
<path fill="#ecfeff" stroke="#0891b2" d="M379,-89C379,-89 473,-89 473,-89 479,-89 485,-95 485,-101 485,-101 485,-231 485,-231 485,-237 479,-243 473,-243 473,-243 379,-243 379,-243 373,-243 367,-237 367,-231 367,-231 367,-101 367,-101 367,-95 373,-89 379,-89"/>
<text text-anchor="middle" x="426" y="-229.4" font-family="Helvetica,sans-Serif" font-size="12.00" fill="#0891b2">Vercel Website</text>
</g>
<g id="clust6" class="cluster">
<title>cluster_weekly</title>
<path fill="#f5f3ff" stroke="#7c3aed" d="M846,-380C846,-380 942,-380 942,-380 948,-380 954,-386 954,-392 954,-392 954,-531 954,-531 954,-537 948,-543 942,-543 942,-543 846,-543 846,-543 840,-543 834,-537 834,-531 834,-531 834,-392 834,-392 834,-386 840,-380 846,-380"/>
<text text-anchor="middle" x="894" y="-529.4" font-family="Helvetica,sans-Serif" font-size="12.00" fill="#7c3aed">Weekly Pipeline</text>
</g>
<g id="clust7" class="cluster">
<title>cluster_podcast</title>
<path fill="#f5f3ff" stroke="#7c3aed" d="M849,-8C849,-8 939,-8 939,-8 945,-8 951,-14 951,-20 951,-20 951,-336 951,-336 951,-342 945,-348 939,-348 939,-348 849,-348 849,-348 843,-348 837,-342 837,-336 837,-336 837,-20 837,-20 837,-14 843,-8 849,-8"/>
<text text-anchor="middle" x="894" y="-334.4" font-family="Helvetica,sans-Serif" font-size="12.00" fill="#7c3aed">Podcast Pipeline</text>
</g>
<g id="clust8" class="cluster">
<title>cluster_ops</title>
<path fill="#fdf2f8" stroke="#db2777" d="M1002,-769.62C1002,-769.62 1211,-769.62 1211,-769.62 1217,-769.62 1223,-775.62 1223,-781.62 1223,-781.62 1223,-926.62 1223,-926.62 1223,-932.62 1217,-938.62 1211,-938.62 1211,-938.62 1002,-938.62 1002,-938.62 996,-938.62 990,-932.62 990,-926.62 990,-926.62 990,-781.62 990,-781.62 990,-775.62 996,-769.62 1002,-769.62"/>
<text text-anchor="middle" x="1106.5" y="-925.02" font-family="Helvetica,sans-Serif" font-size="12.00" fill="#db2777">Operations</text>
</g>
<!-- pubmed -->
<g id="node1" class="node">
<title>pubmed</title>
<path fill="#dbeafe" stroke="#2563eb" stroke-width="1.5" d="M833,-813.62C833,-813.62 785,-813.62 785,-813.62 779,-813.62 773,-807.62 773,-801.62 773,-801.62 773,-789.62 773,-789.62 773,-783.62 779,-777.62 785,-777.62 785,-777.62 833,-777.62 833,-777.62 839,-777.62 845,-783.62 845,-789.62 845,-789.62 845,-801.62 845,-801.62 845,-807.62 839,-813.62 833,-813.62"/>
<text text-anchor="middle" x="809" y="-798.62" font-family="Helvetica,sans-Serif" font-size="10.00">PubMed</text>
<text text-anchor="middle" x="809" y="-787.62" font-family="Helvetica,sans-Serif" font-size="10.00">NCBI eUtils</text>
</g>
<!-- main -->
<g id="node10" class="node">
<title>main</title>
<path fill="#fef3c7" stroke="#d97706" stroke-width="1.5" d="M634.5,-708.62C634.5,-708.62 581.5,-708.62 581.5,-708.62 575.5,-708.62 569.5,-702.62 569.5,-696.62 569.5,-696.62 569.5,-684.62 569.5,-684.62 569.5,-678.62 575.5,-672.62 581.5,-672.62 581.5,-672.62 634.5,-672.62 634.5,-672.62 640.5,-672.62 646.5,-678.62 646.5,-684.62 646.5,-684.62 646.5,-696.62 646.5,-696.62 646.5,-702.62 640.5,-708.62 634.5,-708.62"/>
<text text-anchor="middle" x="608" y="-693.62" font-family="Helvetica,sans-Serif" font-size="10.00">main.py</text>
<text text-anchor="middle" x="608" y="-682.62" font-family="Helvetica,sans-Serif" font-size="10.00">Orchestrator</text>
</g>
<!-- pubmed&#45;&gt;main -->
<g id="edge1" class="edge">
<title>pubmed&#45;&gt;main</title>
<path fill="none" stroke="black" stroke-width="1.2" d="M775.81,-777.62C741.48,-760.02 687.75,-732.49 650.37,-713.34"/>
<polygon fill="black" stroke="black" stroke-width="1.2" points="651.74,-710.1 641.24,-708.66 648.54,-716.33 651.74,-710.1"/>
</g>
<!-- preprints -->
<g id="node2" class="node">
<title>preprints</title>
<path fill="#dbeafe" stroke="#2563eb" stroke-width="1.5" d="M962,-813.62C962,-813.62 886,-813.62 886,-813.62 880,-813.62 874,-807.62 874,-801.62 874,-801.62 874,-789.62 874,-789.62 874,-783.62 880,-777.62 886,-777.62 886,-777.62 962,-777.62 962,-777.62 968,-777.62 974,-783.62 974,-789.62 974,-789.62 974,-801.62 974,-801.62 974,-807.62 968,-813.62 962,-813.62"/>
<text text-anchor="middle" x="924" y="-798.62" font-family="Helvetica,sans-Serif" font-size="10.00">Preprints</text>
<text text-anchor="middle" x="924" y="-787.62" font-family="Helvetica,sans-Serif" font-size="10.00">bioRxiv/medRxiv</text>
</g>
<!-- preprints&#45;&gt;main -->
<g id="edge2" class="edge">
<title>preprints&#45;&gt;main</title>
<path fill="none" stroke="black" stroke-width="1.2" d="M881.47,-777.52C874.34,-774.79 866.98,-772.07 860,-769.62 789.88,-745.11 707.46,-720.35 656.47,-705.5"/>
<polygon fill="black" stroke="black" stroke-width="1.2" points="657.29,-702.09 646.71,-702.66 655.33,-708.81 657.29,-702.09"/>
</g>
<!-- journals -->
<g id="node3" class="node">
<title>journals</title>
<path fill="#dbeafe" stroke="#2563eb" stroke-width="1.5" d="M86,-813.62C86,-813.62 28,-813.62 28,-813.62 22,-813.62 16,-807.62 16,-801.62 16,-801.62 16,-789.62 16,-789.62 16,-783.62 22,-777.62 28,-777.62 28,-777.62 86,-777.62 86,-777.62 92,-777.62 98,-783.62 98,-789.62 98,-789.62 98,-801.62 98,-801.62 98,-807.62 92,-813.62 86,-813.62"/>
<text text-anchor="middle" x="57" y="-798.62" font-family="Helvetica,sans-Serif" font-size="10.00">Journals</text>
<text text-anchor="middle" x="57" y="-787.62" font-family="Helvetica,sans-Serif" font-size="10.00">11 RSS Feeds</text>
</g>
<!-- journals&#45;&gt;main -->
<g id="edge3" class="edge">
<title>journals&#45;&gt;main</title>
<path fill="none" stroke="black" stroke-width="1.2" d="M91.41,-777.56C98.43,-774.57 105.85,-771.74 113,-769.62 272.27,-722.43 469.32,-702.24 559.2,-695.03"/>
<polygon fill="black" stroke="black" stroke-width="1.2" points="559.66,-698.51 569.36,-694.24 559.12,-691.53 559.66,-698.51"/>
</g>
<!-- news -->
<g id="node4" class="node">
<title>news</title>
<path fill="#dbeafe" stroke="#2563eb" stroke-width="1.5" d="M218.5,-813.62C218.5,-813.62 139.5,-813.62 139.5,-813.62 133.5,-813.62 127.5,-807.62 127.5,-801.62 127.5,-801.62 127.5,-789.62 127.5,-789.62 127.5,-783.62 133.5,-777.62 139.5,-777.62 139.5,-777.62 218.5,-777.62 218.5,-777.62 224.5,-777.62 230.5,-783.62 230.5,-789.62 230.5,-789.62 230.5,-801.62 230.5,-801.62 230.5,-807.62 224.5,-813.62 218.5,-813.62"/>
<text text-anchor="middle" x="179" y="-798.62" font-family="Helvetica,sans-Serif" font-size="10.00">News</text>
<text text-anchor="middle" x="179" y="-787.62" font-family="Helvetica,sans-Serif" font-size="10.00">Google News RSS</text>
</g>
<!-- news&#45;&gt;main -->
<g id="edge4" class="edge">
<title>news&#45;&gt;main</title>
<path fill="none" stroke="black" stroke-width="1.2" d="M221.94,-777.56C229.87,-774.7 238.14,-771.93 246,-769.62 356.34,-737.34 489.16,-712.1 559.22,-699.81"/>
<polygon fill="black" stroke="black" stroke-width="1.2" points="560.25,-703.19 569.5,-698.03 559.05,-696.29 560.25,-703.19"/>
</g>
<!-- regulatory -->
<g id="node5" class="node">
<title>regulatory</title>
<path fill="#dbeafe" stroke="#2563eb" stroke-width="1.5" d="M318,-813.62C318,-813.62 272,-813.62 272,-813.62 266,-813.62 260,-807.62 260,-801.62 260,-801.62 260,-789.62 260,-789.62 260,-783.62 266,-777.62 272,-777.62 272,-777.62 318,-777.62 318,-777.62 324,-777.62 330,-783.62 330,-789.62 330,-789.62 330,-801.62 330,-801.62 330,-807.62 324,-813.62 318,-813.62"/>
<text text-anchor="middle" x="295" y="-798.62" font-family="Helvetica,sans-Serif" font-size="10.00">Regulatory</text>
<text text-anchor="middle" x="295" y="-787.62" font-family="Helvetica,sans-Serif" font-size="10.00">FDA RSS</text>
</g>
<!-- regulatory&#45;&gt;main -->
<g id="edge5" class="edge">
<title>regulatory&#45;&gt;main</title>
<path fill="none" stroke="black" stroke-width="1.2" d="M327.17,-777.51C333.02,-774.69 339.13,-771.94 345,-769.62 418.04,-740.79 506.09,-716.75 559.51,-703.28"/>
<polygon fill="black" stroke="black" stroke-width="1.2" points="560.55,-706.63 569.4,-700.81 558.85,-699.84 560.55,-706.63"/>
</g>
<!-- trials -->
<g id="node6" class="node">
<title>trials</title>
<path fill="#dbeafe" stroke="#2563eb" stroke-width="1.5" d="M446.5,-813.62C446.5,-813.62 371.5,-813.62 371.5,-813.62 365.5,-813.62 359.5,-807.62 359.5,-801.62 359.5,-801.62 359.5,-789.62 359.5,-789.62 359.5,-783.62 365.5,-777.62 371.5,-777.62 371.5,-777.62 446.5,-777.62 446.5,-777.62 452.5,-777.62 458.5,-783.62 458.5,-789.62 458.5,-789.62 458.5,-801.62 458.5,-801.62 458.5,-807.62 452.5,-813.62 446.5,-813.62"/>
<text text-anchor="middle" x="409" y="-798.62" font-family="Helvetica,sans-Serif" font-size="10.00">Trials</text>
<text text-anchor="middle" x="409" y="-787.62" font-family="Helvetica,sans-Serif" font-size="10.00">ClinicalTrials.gov</text>
</g>
<!-- trials&#45;&gt;main -->
<g id="edge6" class="edge">
<title>trials&#45;&gt;main</title>
<path fill="none" stroke="black" stroke-width="1.2" d="M441.86,-777.62C475.85,-760.02 529.05,-732.49 566.05,-713.34"/>
<polygon fill="black" stroke="black" stroke-width="1.2" points="567.82,-716.36 575.09,-708.66 564.6,-710.15 567.82,-716.36"/>
</g>
<!-- stocks -->
<g id="node7" class="node">
<title>stocks</title>
<path fill="#dbeafe" stroke="#2563eb" stroke-width="1.5" d="M534,-813.62C534,-813.62 500,-813.62 500,-813.62 494,-813.62 488,-807.62 488,-801.62 488,-801.62 488,-789.62 488,-789.62 488,-783.62 494,-777.62 500,-777.62 500,-777.62 534,-777.62 534,-777.62 540,-777.62 546,-783.62 546,-789.62 546,-789.62 546,-801.62 546,-801.62 546,-807.62 540,-813.62 534,-813.62"/>
<text text-anchor="middle" x="517" y="-798.62" font-family="Helvetica,sans-Serif" font-size="10.00">Stocks</text>
<text text-anchor="middle" x="517" y="-787.62" font-family="Helvetica,sans-Serif" font-size="10.00">yfinance</text>
</g>
<!-- stocks&#45;&gt;main -->
<g id="edge7" class="edge">
<title>stocks&#45;&gt;main</title>
<path fill="none" stroke="black" stroke-width="1.2" d="M532.03,-777.62C546.78,-760.92 569.44,-735.27 586.18,-716.32"/>
<polygon fill="black" stroke="black" stroke-width="1.2" points="588.95,-718.47 592.95,-708.66 583.71,-713.84 588.95,-718.47"/>
</g>
<!-- social -->
<g id="node8" class="node">
<title>social</title>
<path fill="#dbeafe" stroke="#2563eb" stroke-width="1.5" d="M629,-813.62C629,-813.62 587,-813.62 587,-813.62 581,-813.62 575,-807.62 575,-801.62 575,-801.62 575,-789.62 575,-789.62 575,-783.62 581,-777.62 587,-777.62 587,-777.62 629,-777.62 629,-777.62 635,-777.62 641,-783.62 641,-789.62 641,-789.62 641,-801.62 641,-801.62 641,-807.62 635,-813.62 629,-813.62"/>
<text text-anchor="middle" x="608" y="-798.62" font-family="Helvetica,sans-Serif" font-size="10.00">Social</text>
<text text-anchor="middle" x="608" y="-787.62" font-family="Helvetica,sans-Serif" font-size="10.00">Nitter RSS</text>
</g>
<!-- social&#45;&gt;main -->
<g id="edge8" class="edge">
<title>social&#45;&gt;main</title>
<path fill="none" stroke="black" stroke-width="1.2" d="M608,-777.62C608,-761.66 608,-737.54 608,-718.9"/>
<polygon fill="black" stroke="black" stroke-width="1.2" points="611.5,-718.66 608,-708.66 604.5,-718.66 611.5,-718.66"/>
</g>
<!-- financial -->
<g id="node9" class="node">
<title>financial</title>
<path fill="#dbeafe" stroke="#2563eb" stroke-width="1.5" d="M731.5,-813.62C731.5,-813.62 682.5,-813.62 682.5,-813.62 676.5,-813.62 670.5,-807.62 670.5,-801.62 670.5,-801.62 670.5,-789.62 670.5,-789.62 670.5,-783.62 676.5,-777.62 682.5,-777.62 682.5,-777.62 731.5,-777.62 731.5,-777.62 737.5,-777.62 743.5,-783.62 743.5,-789.62 743.5,-789.62 743.5,-801.62 743.5,-801.62 743.5,-807.62 737.5,-813.62 731.5,-813.62"/>
<text text-anchor="middle" x="707" y="-798.62" font-family="Helvetica,sans-Serif" font-size="10.00">Financial</text>
<text text-anchor="middle" x="707" y="-787.62" font-family="Helvetica,sans-Serif" font-size="10.00">SEC EDGAR</text>
</g>
<!-- financial&#45;&gt;main -->
<g id="edge9" class="edge">
<title>financial&#45;&gt;main</title>
<path fill="none" stroke="black" stroke-width="1.2" d="M690.65,-777.62C674.53,-760.84 649.73,-735.04 631.49,-716.07"/>
<polygon fill="black" stroke="black" stroke-width="1.2" points="633.83,-713.44 624.37,-708.66 628.78,-718.29 633.83,-713.44"/>
</g>
<!-- dedup -->
<g id="node11" class="node">
<title>dedup</title>
<path fill="#fef3c7" stroke="#d97706" stroke-width="1.5" d="M640.5,-611.6C640.5,-613.68 625.93,-615.38 608,-615.38 590.07,-615.38 575.5,-613.68 575.5,-611.6 575.5,-611.6 575.5,-577.65 575.5,-577.65 575.5,-575.57 590.07,-573.87 608,-573.87 625.93,-573.87 640.5,-575.57 640.5,-577.65 640.5,-577.65 640.5,-611.6 640.5,-611.6"/>
<path fill="none" stroke="#d97706" stroke-width="1.5" d="M640.5,-611.6C640.5,-609.52 625.93,-607.83 608,-607.83 590.07,-607.83 575.5,-609.52 575.5,-611.6"/>
<text text-anchor="middle" x="608" y="-597.62" font-family="Helvetica,sans-Serif" font-size="10.00">SQLite</text>
<text text-anchor="middle" x="608" y="-586.62" font-family="Helvetica,sans-Serif" font-size="10.00">Dedup DB</text>
</g>
<!-- main&#45;&gt;dedup -->
<g id="edge10" class="edge">
<title>main&#45;&gt;dedup</title>
<path fill="none" stroke="black" stroke-width="1.2" d="M608,-672.38C608,-659.29 608,-640.97 608,-625.51"/>
<polygon fill="black" stroke="black" stroke-width="1.2" points="611.5,-625.36 608,-615.36 604.5,-625.36 611.5,-625.36"/>
</g>
<!-- claude -->
<g id="node12" class="node">
<title>claude</title>
<path fill="#fef3c7" stroke="#d97706" stroke-width="1.5" d="M632.5,-514C632.5,-514 585.5,-514 585.5,-514 579.5,-514 573.5,-508 573.5,-502 573.5,-502 573.5,-490 573.5,-490 573.5,-484 579.5,-478 585.5,-478 585.5,-478 632.5,-478 632.5,-478 638.5,-478 644.5,-484 644.5,-490 644.5,-490 644.5,-502 644.5,-502 644.5,-508 638.5,-514 632.5,-514"/>
<text text-anchor="middle" x="609" y="-499" font-family="Helvetica,sans-Serif" font-size="10.00">Claude API</text>
<text text-anchor="middle" x="609" y="-488" font-family="Helvetica,sans-Serif" font-size="10.00">Digest Gen</text>
</g>
<!-- dedup&#45;&gt;claude -->
<g id="edge11" class="edge">
<title>dedup&#45;&gt;claude</title>
<path fill="none" stroke="black" stroke-width="1.2" d="M608.21,-573.6C608.36,-559.32 608.56,-539.95 608.72,-524.26"/>
<polygon fill="black" stroke="black" stroke-width="1.2" points="612.22,-524.12 608.82,-514.09 605.22,-524.05 612.22,-524.12"/>
</g>
<!-- fallback -->
<g id="node13" class="node">
<title>fallback</title>
<path fill="#fee2e2" stroke="#dc2626" stroke-width="1.5" stroke-dasharray="5,2" d="M634.5,-424C634.5,-424 587.5,-424 587.5,-424 581.5,-424 575.5,-418 575.5,-412 575.5,-412 575.5,-400 575.5,-400 575.5,-394 581.5,-388 587.5,-388 587.5,-388 634.5,-388 634.5,-388 640.5,-388 646.5,-394 646.5,-400 646.5,-400 646.5,-412 646.5,-412 646.5,-418 640.5,-424 634.5,-424"/>
<text text-anchor="middle" x="611" y="-409" font-family="Helvetica,sans-Serif" font-size="10.00">Fallback</text>
<text text-anchor="middle" x="611" y="-398" font-family="Helvetica,sans-Serif" font-size="10.00">Plain HTML</text>
</g>
<!-- claude&#45;&gt;fallback -->
<g id="edge12" class="edge">
<title>claude&#45;&gt;fallback</title>
<path fill="none" stroke="#dc2626" stroke-width="1.2" stroke-dasharray="5,2" d="M609.4,-477.61C609.68,-465.24 610.06,-448.37 610.38,-434.22"/>
<polygon fill="#dc2626" stroke="#dc2626" stroke-width="1.2" points="613.88,-434.13 610.61,-424.05 606.89,-433.97 613.88,-434.13"/>
<text text-anchor="middle" x="616.5" y="-448.8" font-family="Helvetica,sans-Serif" font-size="9.00" fill="#dc2626">fail</text>
</g>
<!-- email -->
<g id="node16" class="node">
<title>email</title>
<path fill="#d1fae5" stroke="#059669" stroke-width="1.5" d="M646.5,-319C646.5,-319 585.5,-319 585.5,-319 579.5,-319 573.5,-313 573.5,-307 573.5,-307 573.5,-295 573.5,-295 573.5,-289 579.5,-283 585.5,-283 585.5,-283 646.5,-283 646.5,-283 652.5,-283 658.5,-289 658.5,-295 658.5,-295 658.5,-307 658.5,-307 658.5,-313 652.5,-319 646.5,-319"/>
<text text-anchor="middle" x="616" y="-304" font-family="Helvetica,sans-Serif" font-size="10.00">Email</text>
<text text-anchor="middle" x="616" y="-293" font-family="Helvetica,sans-Serif" font-size="10.00">SMTP + Jinja2</text>
</g>
<!-- claude&#45;&gt;email -->
<g id="edge15" class="edge">
<title>claude&#45;&gt;email</title>
<path fill="none" stroke="black" stroke-width="1.2" d="M626.48,-477.85C638.78,-464.49 654.21,-444.77 661,-424 672,-390.37 652.66,-352.18 636.01,-327.63"/>
<polygon fill="black" stroke="black" stroke-width="1.2" points="638.69,-325.37 630.06,-319.23 632.98,-329.41 638.69,-325.37"/>
</g>
<!-- beehiiv -->
<g id="node17" class="node">
<title>beehiiv</title>
<path fill="#d1fae5" stroke="#059669" stroke-width="1.5" d="M532,-319C532,-319 502,-319 502,-319 496,-319 490,-313 490,-307 490,-307 490,-295 490,-295 490,-289 496,-283 502,-283 502,-283 532,-283 532,-283 538,-283 544,-289 544,-295 544,-295 544,-307 544,-307 544,-313 538,-319 532,-319"/>
<text text-anchor="middle" x="517" y="-304" font-family="Helvetica,sans-Serif" font-size="10.00">Beehiiv</text>
<text text-anchor="middle" x="517" y="-293" font-family="Helvetica,sans-Serif" font-size="10.00">API v2</text>
</g>
<!-- claude&#45;&gt;beehiiv -->
<g id="edge16" class="edge">
<title>claude&#45;&gt;beehiiv</title>
<path fill="none" stroke="black" stroke-width="1.2" d="M573.11,-491.12C550.63,-486.62 523.3,-476.92 509,-456 483.1,-418.1 495.48,-361.9 506.48,-328.9"/>
<polygon fill="black" stroke="black" stroke-width="1.2" points="509.93,-329.65 509.96,-319.06 503.33,-327.32 509.93,-329.65"/>
</g>
<!-- pages -->
<g id="node18" class="node">
<title>pages</title>
<path fill="#d1fae5" stroke="#059669" stroke-width="1.5" d="M758,-319C758,-319 700,-319 700,-319 694,-319 688,-313 688,-307 688,-307 688,-295 688,-295 688,-289 694,-283 700,-283 700,-283 758,-283 758,-283 764,-283 770,-289 770,-295 770,-295 770,-307 770,-307 770,-313 764,-319 758,-319"/>
<text text-anchor="middle" x="729" y="-304" font-family="Helvetica,sans-Serif" font-size="10.00">GitHub Pages</text>
<text text-anchor="middle" x="729" y="-293" font-family="Helvetica,sans-Serif" font-size="10.00">docs/</text>
</g>
<!-- claude&#45;&gt;pages -->
<g id="edge17" class="edge">
<title>claude&#45;&gt;pages</title>
<path fill="none" stroke="black" stroke-width="1.2" d="M591.52,-477.64C569.71,-453.84 537.94,-410.57 561,-380 592.18,-338.67 627.15,-372.04 673,-348 684.03,-342.22 694.91,-334.03 704.09,-326.16"/>
<polygon fill="black" stroke="black" stroke-width="1.2" points="706.55,-328.65 711.7,-319.39 701.9,-323.42 706.55,-328.65"/>
</g>
<!-- webpy -->
<g id="node19" class="node">
<title>webpy</title>
<path fill="#cffafe" stroke="#0891b2" stroke-width="1.5" d="M449,-319C449,-319 403,-319 403,-319 397,-319 391,-313 391,-307 391,-307 391,-295 391,-295 391,-289 397,-283 403,-283 403,-283 449,-283 449,-283 455,-283 461,-289 461,-295 461,-295 461,-307 461,-307 461,-313 455,-319 449,-319"/>
<text text-anchor="middle" x="426" y="-304" font-family="Helvetica,sans-Serif" font-size="10.00">website.py</text>
<text text-anchor="middle" x="426" y="-293" font-family="Helvetica,sans-Serif" font-size="10.00">Build JSON</text>
</g>
<!-- claude&#45;&gt;webpy -->
<g id="edge18" class="edge">
<title>claude&#45;&gt;webpy</title>
<path fill="none" stroke="black" stroke-width="1.2" d="M573.4,-490.23C549.04,-485.31 517.41,-475.48 496,-456 458.3,-421.7 439.55,-363.13 431.37,-328.96"/>
<polygon fill="black" stroke="black" stroke-width="1.2" points="434.79,-328.18 429.17,-319.19 427.96,-329.72 434.79,-328.18"/>
</g>
<!-- fallback&#45;&gt;email -->
<g id="edge19" class="edge">
<title>fallback&#45;&gt;email</title>
<path fill="none" stroke="black" stroke-width="1.2" stroke-dasharray="5,2" d="M611.83,-387.99C612.6,-372.04 613.77,-347.91 614.68,-329.27"/>
<polygon fill="black" stroke="black" stroke-width="1.2" points="618.18,-329.19 615.17,-319.03 611.19,-328.85 618.18,-329.19"/>
</g>
<!-- guidelines -->
<g id="node14" class="node">
<title>guidelines</title>
<path fill="#fef9c3" stroke="#ca8a04" stroke-width="1.5" d="M745,-612.62C745,-612.62 683,-612.62 683,-612.62 677,-612.62 671,-606.62 671,-600.62 671,-600.62 671,-588.62 671,-588.62 671,-582.62 677,-576.62 683,-576.62 683,-576.62 745,-576.62 745,-576.62 751,-576.62 757,-582.62 757,-588.62 757,-588.62 757,-600.62 757,-600.62 757,-606.62 751,-612.62 745,-612.62"/>
<text text-anchor="middle" x="714" y="-597.62" font-family="Helvetica,sans-Serif" font-size="10.00">Guidelines</text>
<text text-anchor="middle" x="714" y="-586.62" font-family="Helvetica,sans-Serif" font-size="10.00">ACC/AHA, ESC</text>
</g>
<!-- guidelines&#45;&gt;claude -->
<g id="edge13" class="edge">
<title>guidelines&#45;&gt;claude</title>
<path fill="none" stroke="#ca8a04" stroke-width="1.2" stroke-dasharray="5,2" d="M695.23,-576.35C678.51,-560.96 653.86,-538.29 635.2,-521.11"/>
<polygon fill="#ca8a04" stroke="#ca8a04" stroke-width="1.2" points="637.34,-518.32 627.61,-514.13 632.6,-523.47 637.34,-518.32"/>
</g>
<!-- papers -->
<g id="node15" class="node">
<title>papers</title>
<path fill="#fef9c3" stroke="#ca8a04" stroke-width="1.5" d="M875.5,-612.62C875.5,-612.62 798.5,-612.62 798.5,-612.62 792.5,-612.62 786.5,-606.62 786.5,-600.62 786.5,-600.62 786.5,-588.62 786.5,-588.62 786.5,-582.62 792.5,-576.62 798.5,-576.62 798.5,-576.62 875.5,-576.62 875.5,-576.62 881.5,-576.62 887.5,-582.62 887.5,-588.62 887.5,-588.62 887.5,-600.62 887.5,-600.62 887.5,-606.62 881.5,-612.62 875.5,-612.62"/>
<text text-anchor="middle" x="837" y="-597.62" font-family="Helvetica,sans-Serif" font-size="10.00">Landmark Papers</text>
<text text-anchor="middle" x="837" y="-586.62" font-family="Helvetica,sans-Serif" font-size="10.00">20+ Studies</text>
</g>
<!-- papers&#45;&gt;claude -->
<g id="edge14" class="edge">
<title>papers&#45;&gt;claude</title>
<path fill="none" stroke="#ca8a04" stroke-width="1.2" stroke-dasharray="5,2" d="M796.76,-576.57C756.79,-559.63 695.63,-533.71 654.05,-516.09"/>
<polygon fill="#ca8a04" stroke="#ca8a04" stroke-width="1.2" points="655.29,-512.81 644.71,-512.13 652.55,-519.26 655.29,-512.81"/>
</g>
<!-- weekly_comp -->
<g id="node22" class="node">
<title>weekly_comp</title>
<path fill="#ede9fe" stroke="#7c3aed" stroke-width="1.5" d="M928.5,-514C928.5,-514 855.5,-514 855.5,-514 849.5,-514 843.5,-508 843.5,-502 843.5,-502 843.5,-490 843.5,-490 843.5,-484 849.5,-478 855.5,-478 855.5,-478 928.5,-478 928.5,-478 934.5,-478 940.5,-484 940.5,-490 940.5,-490 940.5,-502 940.5,-502 940.5,-508 934.5,-514 928.5,-514"/>
<text text-anchor="middle" x="892" y="-499" font-family="Helvetica,sans-Serif" font-size="10.00">weekly.py</text>
<text text-anchor="middle" x="892" y="-488" font-family="Helvetica,sans-Serif" font-size="10.00">Compile Mon&#45;Fri</text>
</g>
<!-- pages&#45;&gt;weekly_comp -->
<g id="edge22" class="edge">
<title>pages&#45;&gt;weekly_comp</title>
<path fill="none" stroke="black" stroke-width="1.2" stroke-dasharray="5,2" d="M732.49,-319.11C738.38,-344.44 752.33,-392.3 779,-424 796.43,-444.73 821.51,-461.33 843.61,-473.25"/>
<polygon fill="black" stroke="black" stroke-width="1.2" points="842.06,-476.39 852.55,-477.91 845.3,-470.18 842.06,-476.39"/>
<text text-anchor="middle" x="803.5" y="-403.8" font-family="Helvetica,sans-Serif" font-size="9.00">daily HTML</text>
</g>
<!-- webrepo -->
<g id="node20" class="node">
<title>webrepo</title>
<path fill="#cffafe" stroke="#0891b2" stroke-width="1.5" d="M465,-214C465,-214 387,-214 387,-214 381,-214 375,-208 375,-202 375,-202 375,-190 375,-190 375,-184 381,-178 387,-178 387,-178 465,-178 465,-178 471,-178 477,-184 477,-190 477,-190 477,-202 477,-202 477,-208 471,-214 465,-214"/>
<text text-anchor="middle" x="426" y="-199" font-family="Helvetica,sans-Serif" font-size="10.00">thevalvewire&#45;site</text>
<text text-anchor="middle" x="426" y="-188" font-family="Helvetica,sans-Serif" font-size="10.00">GitHub Repo</text>
</g>
<!-- webpy&#45;&gt;webrepo -->
<g id="edge20" class="edge">
<title>webpy&#45;&gt;webrepo</title>
<path fill="none" stroke="#0891b2" stroke-width="1.2" d="M426,-282.99C426,-267.04 426,-242.91 426,-224.27"/>
<polygon fill="#0891b2" stroke="#0891b2" stroke-width="1.2" points="429.5,-224.03 426,-214.03 422.5,-224.03 429.5,-224.03"/>
<text text-anchor="middle" x="450.5" y="-253.8" font-family="Helvetica,sans-Serif" font-size="9.00" fill="#0891b2">GitHub API</text>
</g>
<!-- vercel -->
<g id="node21" class="node">
<title>vercel</title>
<path fill="#cffafe" stroke="#0891b2" stroke-width="1.5" d="M452.5,-133C452.5,-133 399.5,-133 399.5,-133 393.5,-133 387.5,-127 387.5,-121 387.5,-121 387.5,-109 387.5,-109 387.5,-103 393.5,-97 399.5,-97 399.5,-97 452.5,-97 452.5,-97 458.5,-97 464.5,-103 464.5,-109 464.5,-109 464.5,-121 464.5,-121 464.5,-127 458.5,-133 452.5,-133"/>
<text text-anchor="middle" x="426" y="-118" font-family="Helvetica,sans-Serif" font-size="10.00">Vercel</text>
<text text-anchor="middle" x="426" y="-107" font-family="Helvetica,sans-Serif" font-size="10.00">Deployment</text>
</g>
<!-- webrepo&#45;&gt;vercel -->
<g id="edge21" class="edge">
<title>webrepo&#45;&gt;vercel</title>
<path fill="none" stroke="#0891b2" stroke-width="1.2" d="M426,-177.86C426,-167.71 426,-154.63 426,-143.12"/>
<polygon fill="#0891b2" stroke="#0891b2" stroke-width="1.2" points="429.5,-143.11 426,-133.11 422.5,-143.11 429.5,-143.11"/>
</g>
<!-- weekly_claude -->
<g id="node23" class="node">
<title>weekly_claude</title>
<path fill="#ede9fe" stroke="#7c3aed" stroke-width="1.5" d="M933.5,-424C933.5,-424 854.5,-424 854.5,-424 848.5,-424 842.5,-418 842.5,-412 842.5,-412 842.5,-400 842.5,-400 842.5,-394 848.5,-388 854.5,-388 854.5,-388 933.5,-388 933.5,-388 939.5,-388 945.5,-394 945.5,-400 945.5,-400 945.5,-412 945.5,-412 945.5,-418 939.5,-424 933.5,-424"/>
<text text-anchor="middle" x="894" y="-409" font-family="Helvetica,sans-Serif" font-size="10.00">Claude API</text>
<text text-anchor="middle" x="894" y="-398" font-family="Helvetica,sans-Serif" font-size="10.00">Weekly Summary</text>
</g>
<!-- weekly_comp&#45;&gt;weekly_claude -->
<g id="edge23" class="edge">
<title>weekly_comp&#45;&gt;weekly_claude</title>
<path fill="none" stroke="black" stroke-width="1.2" d="M892.4,-477.61C892.68,-465.24 893.06,-448.37 893.38,-434.22"/>
<polygon fill="black" stroke="black" stroke-width="1.2" points="896.88,-434.13 893.61,-424.05 889.89,-433.97 896.88,-434.13"/>
</g>
<!-- weekly_claude&#45;&gt;email -->
<g id="edge24" class="edge">
<title>weekly_claude&#45;&gt;email</title>
<path fill="none" stroke="black" stroke-width="1.2" stroke-dasharray="5,2" d="M846.07,-387.95C837.44,-385.13 828.49,-382.36 820,-380 755.99,-362.23 734.01,-376.48 674,-348 662.21,-342.4 650.64,-334.01 640.98,-325.91"/>
<polygon fill="black" stroke="black" stroke-width="1.2" points="643.19,-323.19 633.35,-319.25 638.58,-328.47 643.19,-323.19"/>
</g>
<!-- weekly_claude&#45;&gt;pages -->
<g id="edge25" class="edge">
<title>weekly_claude&#45;&gt;pages</title>
<path fill="none" stroke="black" stroke-width="1.2" stroke-dasharray="5,2" d="M866.75,-387.99C838.93,-370.62 795.58,-343.56 764.96,-324.45"/>
<polygon fill="black" stroke="black" stroke-width="1.2" points="766.62,-321.36 756.29,-319.03 762.92,-327.3 766.62,-321.36"/>
</g>
<!-- script -->
<g id="node24" class="node">
<title>script</title>
<path fill="#ede9fe" stroke="#7c3aed" stroke-width="1.5" d="M915.5,-319C915.5,-319 872.5,-319 872.5,-319 866.5,-319 860.5,-313 860.5,-307 860.5,-307 860.5,-295 860.5,-295 860.5,-289 866.5,-283 872.5,-283 872.5,-283 915.5,-283 915.5,-283 921.5,-283 927.5,-289 927.5,-295 927.5,-295 927.5,-307 927.5,-307 927.5,-313 921.5,-319 915.5,-319"/>
<text text-anchor="middle" x="894" y="-304" font-family="Helvetica,sans-Serif" font-size="10.00">Claude</text>
<text text-anchor="middle" x="894" y="-293" font-family="Helvetica,sans-Serif" font-size="10.00">Script Gen</text>
</g>
<!-- weekly_claude&#45;&gt;script -->
<g id="edge26" class="edge">
<title>weekly_claude&#45;&gt;script</title>
<path fill="none" stroke="black" stroke-width="1.2" stroke-dasharray="5,2" d="M894,-387.99C894,-372.04 894,-347.91 894,-329.27"/>
<polygon fill="black" stroke="black" stroke-width="1.2" points="897.5,-329.03 894,-319.03 890.5,-329.03 897.5,-329.03"/>
<text text-anchor="middle" x="929" y="-358.8" font-family="Helvetica,sans-Serif" font-size="9.00">weekly content</text>
</g>
<!-- tts -->
<g id="node25" class="node">
<title>tts</title>
<path fill="#ede9fe" stroke="#7c3aed" stroke-width="1.5" d="M926,-214C926,-214 862,-214 862,-214 856,-214 850,-208 850,-202 850,-202 850,-190 850,-190 850,-184 856,-178 862,-178 862,-178 926,-178 926,-178 932,-178 938,-184 938,-190 938,-190 938,-202 938,-202 938,-208 932,-214 926,-214"/>
<text text-anchor="middle" x="894" y="-199" font-family="Helvetica,sans-Serif" font-size="10.00">OpenAI TTS</text>
<text text-anchor="middle" x="894" y="-188" font-family="Helvetica,sans-Serif" font-size="10.00">Nolan + Claire</text>
</g>
<!-- script&#45;&gt;tts -->
<g id="edge27" class="edge">
<title>script&#45;&gt;tts</title>
<path fill="none" stroke="black" stroke-width="1.2" d="M894,-282.99C894,-267.04 894,-242.91 894,-224.27"/>
<polygon fill="black" stroke="black" stroke-width="1.2" points="897.5,-224.03 894,-214.03 890.5,-224.03 897.5,-224.03"/>
</g>
<!-- assembly -->
<g id="node26" class="node">
<title>assembly</title>
<path fill="#ede9fe" stroke="#7c3aed" stroke-width="1.5" d="M929.5,-133C929.5,-133 858.5,-133 858.5,-133 852.5,-133 846.5,-127 846.5,-121 846.5,-121 846.5,-109 846.5,-109 846.5,-103 852.5,-97 858.5,-97 858.5,-97 929.5,-97 929.5,-97 935.5,-97 941.5,-103 941.5,-109 941.5,-109 941.5,-121 941.5,-121 941.5,-127 935.5,-133 929.5,-133"/>
<text text-anchor="middle" x="894" y="-118" font-family="Helvetica,sans-Serif" font-size="10.00">pydub</text>
<text text-anchor="middle" x="894" y="-107" font-family="Helvetica,sans-Serif" font-size="10.00">Audio Assembly</text>
</g>
<!-- tts&#45;&gt;assembly -->
<g id="edge28" class="edge">
<title>tts&#45;&gt;assembly</title>
<path fill="none" stroke="black" stroke-width="1.2" d="M894,-177.86C894,-167.71 894,-154.63 894,-143.12"/>
<polygon fill="black" stroke="black" stroke-width="1.2" points="897.5,-143.11 894,-133.11 890.5,-143.11 897.5,-143.11"/>
</g>
<!-- publish -->
<g id="node27" class="node">
<title>publish</title>
<path fill="#ede9fe" stroke="#7c3aed" stroke-width="1.5" d="M931,-52C931,-52 857,-52 857,-52 851,-52 845,-46 845,-40 845,-40 845,-28 845,-28 845,-22 851,-16 857,-16 857,-16 931,-16 931,-16 937,-16 943,-22 943,-28 943,-28 943,-40 943,-40 943,-46 937,-52 931,-52"/>
<text text-anchor="middle" x="894" y="-37" font-family="Helvetica,sans-Serif" font-size="10.00">GitHub Releases</text>
<text text-anchor="middle" x="894" y="-26" font-family="Helvetica,sans-Serif" font-size="10.00">+ RSS Feed</text>
</g>
<!-- assembly&#45;&gt;publish -->
<g id="edge29" class="edge">
<title>assembly&#45;&gt;publish</title>
<path fill="none" stroke="black" stroke-width="1.2" d="M894,-96.86C894,-86.71 894,-73.63 894,-62.12"/>
<polygon fill="black" stroke="black" stroke-width="1.2" points="897.5,-62.11 894,-52.11 890.5,-62.11 897.5,-62.11"/>
</g>
<!-- bot -->
<g id="node28" class="node">
<title>bot</title>
<path fill="#fce7f3" stroke="#db2777" stroke-width="1.5" d="M1072.5,-813.62C1072.5,-813.62 1015.5,-813.62 1015.5,-813.62 1009.5,-813.62 1003.5,-807.62 1003.5,-801.62 1003.5,-801.62 1003.5,-789.62 1003.5,-789.62 1003.5,-783.62 1009.5,-777.62 1015.5,-777.62 1015.5,-777.62 1072.5,-777.62 1072.5,-777.62 1078.5,-777.62 1084.5,-783.62 1084.5,-789.62 1084.5,-789.62 1084.5,-801.62 1084.5,-801.62 1084.5,-807.62 1078.5,-813.62 1072.5,-813.62"/>
<text text-anchor="middle" x="1044" y="-798.62" font-family="Helvetica,sans-Serif" font-size="10.00">Telegram Bot</text>
<text text-anchor="middle" x="1044" y="-787.62" font-family="Helvetica,sans-Serif" font-size="10.00">Railway</text>
</g>
<!-- bot&#45;&gt;main -->
<g id="edge30" class="edge">
<title>bot&#45;&gt;main</title>
<path fill="none" stroke="#db2777" stroke-width="1.2" stroke-dasharray="5,2" d="M1009.55,-777.55C1002.84,-774.63 995.78,-771.83 989,-769.62 872.72,-731.83 730.29,-708.47 656.9,-698.04"/>
<polygon fill="#db2777" stroke="#db2777" stroke-width="1.2" points="656.98,-694.52 646.59,-696.6 656,-701.45 656.98,-694.52"/>
<text text-anchor="middle" x="956" y="-748.42" font-family="Helvetica,sans-Serif" font-size="9.00">triggers</text>
</g>
<!-- monitor -->
<g id="node29" class="node">
<title>monitor</title>
<path fill="#fce7f3" stroke="#db2777" stroke-width="1.5" d="M1202.5,-909.62C1202.5,-909.62 1131.5,-909.62 1131.5,-909.62 1125.5,-909.62 1119.5,-903.62 1119.5,-897.62 1119.5,-897.62 1119.5,-885.62 1119.5,-885.62 1119.5,-879.62 1125.5,-873.62 1131.5,-873.62 1131.5,-873.62 1202.5,-873.62 1202.5,-873.62 1208.5,-873.62 1214.5,-879.62 1214.5,-885.62 1214.5,-885.62 1214.5,-897.62 1214.5,-897.62 1214.5,-903.62 1208.5,-909.62 1202.5,-909.62"/>
<text text-anchor="middle" x="1167" y="-894.62" font-family="Helvetica,sans-Serif" font-size="10.00">CI/CD Monitor</text>
<text text-anchor="middle" x="1167" y="-883.62" font-family="Helvetica,sans-Serif" font-size="10.00">Claude Analysis</text>
</g>
<!-- monitor&#45;&gt;main -->
<g id="edge31" class="edge">
<title>monitor&#45;&gt;main</title>
<path fill="none" stroke="#db2777" stroke-width="1.2" stroke-dasharray="5,2" d="M1162.39,-873.49C1154.29,-846.82 1134.83,-795.74 1099,-769.62 1028.97,-718.6 766.78,-699.63 656.92,-693.82"/>
<polygon fill="#db2777" stroke="#db2777" stroke-width="1.2" points="656.94,-690.32 646.77,-693.3 656.58,-697.31 656.94,-690.32"/>
<text text-anchor="middle" x="1170" y="-793.42" font-family="Helvetica,sans-Serif" font-size="9.00">monitors</text>
</g>
<!-- summary -->
<g id="node30" class="node">
<title>summary</title>
<path fill="#fce7f3" stroke="#db2777" stroke-width="1.5" d="M1078,-909.62C1078,-909.62 1010,-909.62 1010,-909.62 1004,-909.62 998,-903.62 998,-897.62 998,-897.62 998,-885.62 998,-885.62 998,-879.62 1004,-873.62 1010,-873.62 1010,-873.62 1078,-873.62 1078,-873.62 1084,-873.62 1090,-879.62 1090,-885.62 1090,-885.62 1090,-897.62 1090,-897.62 1090,-903.62 1084,-909.62 1078,-909.62"/>
<text text-anchor="middle" x="1044" y="-894.62" font-family="Helvetica,sans-Serif" font-size="10.00">Daily Summary</text>
<text text-anchor="middle" x="1044" y="-883.62" font-family="Helvetica,sans-Serif" font-size="10.00">Status Reports</text>
</g>
<!-- summary&#45;&gt;bot -->
<g id="edge32" class="edge">
<title>summary&#45;&gt;bot</title>
<path fill="none" stroke="#db2777" stroke-width="1.2" stroke-dasharray="5,2" d="M1044,-873.38C1044,-859.6 1044,-840.02 1044,-824.09"/>
<polygon fill="#db2777" stroke="#db2777" stroke-width="1.2" points="1047.5,-823.76 1044,-813.76 1040.5,-823.76 1047.5,-823.76"/>
</g>
</g>
</svg>
