<?xml version="1.0" encoding="UTF-8" standalone="no"?>
<!DOCTYPE svg PUBLIC "-//W3C//DTD SVG 1.1//EN"
 "http://www.w3.org/Graphics/SVG/1.1/DTD/svg11.dtd">
<!-- Generated by graphviz version 2.43.0 (0)
 -->
<!-- Title: daily_pipeline Pages: 1 -->
<svg width="1204pt" height="2817pt"
 viewBox="0.00 0.00 433.50 1014.10" xmlns="http://www.w3.org/2000/svg" xmlns:xlink="http://www.w3.org/1999/xlink">
<g id="graph0" class="graph" transform="scale(2.78 2.78) rotate(0) translate(36 978.1)">
<title>daily_pipeline</title>
<polygon fill="white" stroke="transparent" points="-36,36 -36,-978.1 397.5,-978.1 397.5,36 -36,36"/>
<text text-anchor="middle" x="180.75" y="-928.5" font-family="Helvetica,sans-Serif" font-size="12.00">Daily Digest Pipeline</text>
<g id="clust1" class="cluster">
<title>cluster_publish</title>
<path fill="#ecfdf5" stroke="#059669" d="M101.5,-147C101.5,-147 293.5,-147 293.5,-147 299.5,-147 305.5,-153 305.5,-159 305.5,-159 305.5,-290 305.5,-290 305.5,-296 299.5,-302 293.5,-302 293.5,-302 101.5,-302 101.5,-302 95.5,-302 89.5,-296 89.5,-290 89.5,-290 89.5,-159 89.5,-159 89.5,-153 95.5,-147 101.5,-147"/>
<text text-anchor="middle" x="197.5" y="-288.4" font-family="Helvetica,sans-Serif" font-size="12.00" fill="#059669">Publish (parallel)</text>
</g>
<!-- start -->
<g id="node1" class="node">
<title>start</title>
<ellipse fill="#dbeafe" stroke="#2563eb" stroke-width="1.5" cx="156.5" cy="-899.89" rx="62.87" ry="21.43"/>
<text text-anchor="middle" x="156.5" y="-902.89" font-family="Helvetica,sans-Serif" font-size="10.00">GitHub Actions</text>
<text text-anchor="middle" x="156.5" y="-891.89" font-family="Helvetica,sans-Serif" font-size="10.00">6 AM Central</text>
</g>
<!-- fetch -->
<g id="node2" class="node">
<title>fetch</title>
<path fill="#dbeafe" stroke="#2563eb" stroke-width="1.5" d="M211.5,-841.68C211.5,-841.68 101.5,-841.68 101.5,-841.68 95.5,-841.68 89.5,-835.68 89.5,-829.68 89.5,-829.68 89.5,-817.68 89.5,-817.68 89.5,-811.68 95.5,-805.68 101.5,-805.68 101.5,-805.68 211.5,-805.68 211.5,-805.68 217.5,-805.68 223.5,-811.68 223.5,-817.68 223.5,-817.68 223.5,-829.68 223.5,-829.68 223.5,-835.68 217.5,-841.68 211.5,-841.68"/>
<text text-anchor="middle" x="156.5" y="-826.68" font-family="Helvetica,sans-Serif" font-size="10.00">Fetch 9 Sources</text>
<text text-anchor="middle" x="156.5" y="-815.68" font-family="Helvetica,sans-Serif" font-size="10.00">(isolated error handling)</text>
</g>
<!-- start&#45;&gt;fetch -->
<g id="edge1" class="edge">
<title>start&#45;&gt;fetch</title>
<path fill="none" stroke="black" stroke-width="1.2" d="M156.5,-878.61C156.5,-870.43 156.5,-860.87 156.5,-852.09"/>
<polygon fill="black" stroke="black" stroke-width="1.2" points="160,-851.91 156.5,-841.91 153,-851.91 160,-851.91"/>
</g>
<!-- dedup -->
<g id="node3" class="node">
<title>dedup</title>
<path fill="#fef3c7" stroke="#d97706" stroke-width="1.5" d="M201,-765.03C201,-767.11 181.05,-768.8 156.5,-768.8 131.95,-768.8 112,-767.11 112,-765.03 112,-765.03 112,-731.07 112,-731.07 112,-728.99 131.95,-727.3 156.5,-727.3 181.05,-727.3 201,-728.99 201,-731.07 201,-731.07 201,-765.03 201,-765.03"/>
<path fill="none" stroke="#d97706" stroke-width="1.5" d="M201,-765.03C201,-762.95 181.05,-761.26 156.5,-761.26 131.95,-761.26 112,-762.95 112,-765.03"/>
<text text-anchor="middle" x="156.5" y="-751.05" font-family="Helvetica,sans-Serif" font-size="10.00">Dedup Filter</text>
<text text-anchor="middle" x="156.5" y="-740.05" font-family="Helvetica,sans-Serif" font-size="10.00">SQLite SHA256</text>
</g>
<!-- fetch&#45;&gt;dedup -->
<g id="edge2" class="edge">
<title>fetch&#45;&gt;dedup</title>
<path fill="none" stroke="black" stroke-width="1.2" d="M156.5,-805.6C156.5,-797.72 156.5,-788.13 156.5,-779.11"/>
<polygon fill="black" stroke="black" stroke-width="1.2" points="160,-778.9 156.5,-768.9 153,-778.9 160,-778.9"/>
</g>
<!-- check -->
<g id="node4" class="node">
<title>check</title>
<path fill="#f3f4f6" stroke="#6b7280" stroke-width="1.5" d="M144.89,-687.41C144.89,-687.41 98.92,-675.45 98.92,-675.45 93.11,-673.94 93.11,-670.92 98.92,-669.41 98.92,-669.41 144.89,-657.45 144.89,-657.45 150.69,-655.94 162.31,-655.94 168.11,-657.45 168.11,-657.45 214.08,-669.41 214.08,-669.41 219.89,-670.92 219.89,-673.94 214.08,-675.45 214.08,-675.45 168.11,-687.41 168.11,-687.41 162.31,-688.92 150.69,-688.92 144.89,-687.41"/>
<text text-anchor="middle" x="156.5" y="-669.93" font-family="Helvetica,sans-Serif" font-size="10.00">New articles?</text>
</g>
<!-- dedup&#45;&gt;check -->
<g id="edge3" class="edge">
<title>dedup&#45;&gt;check</title>
<path fill="none" stroke="black" stroke-width="1.2" d="M156.5,-727.32C156.5,-719.21 156.5,-709.67 156.5,-700.89"/>
<polygon fill="black" stroke="black" stroke-width="1.2" points="160,-700.7 156.5,-690.7 153,-700.7 160,-700.7"/>
</g>
<!-- skip -->
<g id="node5" class="node">
<title>skip</title>
<ellipse fill="#fee2e2" stroke="#dc2626" stroke-width="1.5" cx="139.5" cy="-587.21" rx="48.58" ry="21.43"/>
<text text-anchor="middle" x="139.5" y="-590.21" font-family="Helvetica,sans-Serif" font-size="10.00">Skip</text>
<text text-anchor="middle" x="139.5" y="-579.21" font-family="Helvetica,sans-Serif" font-size="10.00">(no digest)</text>
</g>
<!-- check&#45;&gt;skip -->
<g id="edge4" class="edge">
<title>check&#45;&gt;skip</title>
<path fill="none" stroke="black" stroke-width="1.2" d="M153.14,-654.99C151.01,-644.55 148.19,-630.73 145.66,-618.38"/>
<polygon fill="black" stroke="black" stroke-width="1.2" points="149.06,-617.54 143.63,-608.44 142.21,-618.94 149.06,-617.54"/>
<text text-anchor="middle" x="154.5" y="-629.23" font-family="Helvetica,sans-Serif" font-size="9.00">no</text>
</g>
<!-- claude1 -->
<g id="node6" class="node">
<title>claude1</title>
<path fill="#fef3c7" stroke="#d97706" stroke-width="1.5" d="M263,-605.21C263,-605.21 218,-605.21 218,-605.21 212,-605.21 206,-599.21 206,-593.21 206,-593.21 206,-581.21 206,-581.21 206,-575.21 212,-569.21 218,-569.21 218,-569.21 263,-569.21 263,-569.21 269,-569.21 275,-575.21 275,-581.21 275,-581.21 275,-593.21 275,-593.21 275,-599.21 269,-605.21 263,-605.21"/>
<text text-anchor="middle" x="240.5" y="-590.21" font-family="Helvetica,sans-Serif" font-size="10.00">Claude API</text>
<text text-anchor="middle" x="240.5" y="-579.21" font-family="Helvetica,sans-Serif" font-size="10.00">Attempt 1</text>
</g>
<!-- check&#45;&gt;claude1 -->
<g id="edge5" class="edge">
<title>check&#45;&gt;claude1</title>
<path fill="none" stroke="black" stroke-width="1.2" d="M170.37,-657.69C182.67,-645.5 200.93,-627.41 215.73,-612.75"/>
<polygon fill="black" stroke="black" stroke-width="1.2" points="218.47,-614.96 223.11,-605.44 213.54,-609.99 218.47,-614.96"/>
<text text-anchor="middle" x="208.5" y="-629.23" font-family="Helvetica,sans-Serif" font-size="9.00">yes</text>
</g>
<!-- wait -->
<g id="node7" class="node">
<title>wait</title>
<ellipse fill="#f3f4f6" stroke="#6b7280" stroke-width="1.5" cx="177.5" cy="-502" rx="34.96" ry="18"/>
<text text-anchor="middle" x="177.5" y="-499.5" font-family="Helvetica,sans-Serif" font-size="10.00">Wait 30s</text>
</g>
<!-- claude1&#45;&gt;wait -->
<g id="edge7" class="edge">
<title>claude1&#45;&gt;wait</title>
<path fill="none" stroke="#dc2626" stroke-width="1.2" stroke-dasharray="5,2" d="M227.45,-568.97C218.34,-556.94 206.06,-540.72 195.95,-527.37"/>
<polygon fill="#dc2626" stroke="#dc2626" stroke-width="1.2" points="198.51,-524.95 189.68,-519.09 192.93,-529.18 198.51,-524.95"/>
<text text-anchor="middle" x="217" y="-540.8" font-family="Helvetica,sans-Serif" font-size="9.00">fail</text>
</g>
<!-- email -->
<g id="node10" class="node">
<title>email</title>
<path fill="#d1fae5" stroke="#059669" stroke-width="1.5" d="M139.5,-273C139.5,-273 109.5,-273 109.5,-273 103.5,-273 97.5,-267 97.5,-261 97.5,-261 97.5,-249 97.5,-249 97.5,-243 103.5,-237 109.5,-237 109.5,-237 139.5,-237 139.5,-237 145.5,-237 151.5,-243 151.5,-249 151.5,-249 151.5,-261 151.5,-261 151.5,-267 145.5,-273 139.5,-273"/>
<text text-anchor="middle" x="124.5" y="-258" font-family="Helvetica,sans-Serif" font-size="10.00">Email</text>
<text text-anchor="middle" x="124.5" y="-247" font-family="Helvetica,sans-Serif" font-size="10.00">SMTP</text>
</g>
<!-- claude1&#45;&gt;email -->
<g id="edge6" class="edge">
<title>claude1&#45;&gt;email</title>
<path fill="none" stroke="black" stroke-width="1.2" d="M205.84,-569.71C203.03,-568.44 200.22,-567.19 197.5,-566 128.56,-535.99 40.5,-578.19 40.5,-503 40.5,-503 40.5,-503 40.5,-346 40.5,-315.87 65.98,-291.63 88.87,-275.93"/>
<polygon fill="black" stroke="black" stroke-width="1.2" points="90.99,-278.72 97.46,-270.33 87.17,-272.86 90.99,-278.72"/>
<text text-anchor="middle" x="58.5" y="-426.8" font-family="Helvetica,sans-Serif" font-size="9.00">success</text>
</g>
<!-- beehiiv -->
<g id="node11" class="node">
<title>beehiiv</title>
<path fill="#d1fae5" stroke="#059669" stroke-width="1.5" d="M238.5,-191C238.5,-191 208.5,-191 208.5,-191 202.5,-191 196.5,-185 196.5,-179 196.5,-179 196.5,-167 196.5,-167 196.5,-161 202.5,-155 208.5,-155 208.5,-155 238.5,-155 238.5,-155 244.5,-155 250.5,-161 250.5,-167 250.5,-167 250.5,-179 250.5,-179 250.5,-185 244.5,-191 238.5,-191"/>
<text text-anchor="middle" x="223.5" y="-176" font-family="Helvetica,sans-Serif" font-size="10.00">Beehiiv</text>
<text text-anchor="middle" x="223.5" y="-165" font-family="Helvetica,sans-Serif" font-size="10.00">API v2</text>
</g>
<!-- claude1&#45;&gt;beehiiv -->
<!-- ghpages -->
<g id="node12" class="node">
<title>ghpages</title>
<path fill="#d1fae5" stroke="#059669" stroke-width="1.5" d="M211.5,-273C211.5,-273 181.5,-273 181.5,-273 175.5,-273 169.5,-267 169.5,-261 169.5,-261 169.5,-249 169.5,-249 169.5,-243 175.5,-237 181.5,-237 181.5,-237 211.5,-237 211.5,-237 217.5,-237 223.5,-243 223.5,-249 223.5,-249 223.5,-261 223.5,-261 223.5,-267 217.5,-273 211.5,-273"/>
<text text-anchor="middle" x="196.5" y="-258" font-family="Helvetica,sans-Serif" font-size="10.00">GitHub</text>
<text text-anchor="middle" x="196.5" y="-247" font-family="Helvetica,sans-Serif" font-size="10.00">Pages</text>
</g>
<!-- claude1&#45;&gt;ghpages -->
<!-- website -->
<g id="node13" class="node">
<title>website</title>
<path fill="#cffafe" stroke="#0891b2" stroke-width="1.5" d="M285.5,-273C285.5,-273 253.5,-273 253.5,-273 247.5,-273 241.5,-267 241.5,-261 241.5,-261 241.5,-249 241.5,-249 241.5,-243 247.5,-237 253.5,-237 253.5,-237 285.5,-237 285.5,-237 291.5,-237 297.5,-243 297.5,-249 297.5,-249 297.5,-261 297.5,-261 297.5,-267 291.5,-273 285.5,-273"/>
<text text-anchor="middle" x="269.5" y="-258" font-family="Helvetica,sans-Serif" font-size="10.00">Vercel</text>
<text text-anchor="middle" x="269.5" y="-247" font-family="Helvetica,sans-Serif" font-size="10.00">Website</text>
</g>
<!-- claude1&#45;&gt;website -->
<!-- claude2 -->
<g id="node8" class="node">
<title>claude2</title>
<path fill="#fef3c7" stroke="#d97706" stroke-width="1.5" d="M199,-447C199,-447 154,-447 154,-447 148,-447 142,-441 142,-435 142,-435 142,-423 142,-423 142,-417 148,-411 154,-411 154,-411 199,-411 199,-411 205,-411 211,-417 211,-423 211,-423 211,-435 211,-435 211,-441 205,-447 199,-447"/>
<text text-anchor="middle" x="176.5" y="-432" font-family="Helvetica,sans-Serif" font-size="10.00">Claude API</text>
<text text-anchor="middle" x="176.5" y="-421" font-family="Helvetica,sans-Serif" font-size="10.00">Attempt 2</text>
</g>
<!-- wait&#45;&gt;claude2 -->
<g id="edge8" class="edge">
<title>wait&#45;&gt;claude2</title>
<path fill="none" stroke="black" stroke-width="1.2" d="M177.26,-483.81C177.14,-475.79 177.01,-466.05 176.88,-457.07"/>
<polygon fill="black" stroke="black" stroke-width="1.2" points="180.38,-456.98 176.74,-447.03 173.38,-457.08 180.38,-456.98"/>
</g>
<!-- fallback -->
<g id="node9" class="node">
<title>fallback</title>
<path fill="#fee2e2" stroke="#dc2626" stroke-width="1.5" d="M200,-365C200,-365 153,-365 153,-365 147,-365 141,-359 141,-353 141,-353 141,-341 141,-341 141,-335 147,-329 153,-329 153,-329 200,-329 200,-329 206,-329 212,-335 212,-341 212,-341 212,-353 212,-353 212,-359 206,-365 200,-365"/>
<text text-anchor="middle" x="176.5" y="-350" font-family="Helvetica,sans-Serif" font-size="10.00">Fallback</text>
<text text-anchor="middle" x="176.5" y="-339" font-family="Helvetica,sans-Serif" font-size="10.00">Plain HTML</text>
</g>
<!-- claude2&#45;&gt;fallback -->
<g id="edge10" class="edge">
<title>claude2&#45;&gt;fallback</title>
<path fill="none" stroke="#dc2626" stroke-width="1.2" stroke-dasharray="5,2" d="M176.5,-410.64C176.5,-400.3 176.5,-386.94 176.5,-375.22"/>
<polygon fill="#dc2626" stroke="#dc2626" stroke-width="1.2" points="180,-375.05 176.5,-365.05 173,-375.05 180,-375.05"/>
<text text-anchor="middle" x="183" y="-385.8" font-family="Helvetica,sans-Serif" font-size="9.00">fail</text>
</g>
<!-- claude2&#45;&gt;email -->
<g id="edge9" class="edge">
<title>claude2&#45;&gt;email</title>
<path fill="none" stroke="black" stroke-width="1.2" d="M142.26,-410.75C125.14,-400.12 106.07,-384.72 96.5,-365 83.53,-338.27 95.84,-304.84 107.98,-282.1"/>
<polygon fill="black" stroke="black" stroke-width="1.2" points="111.05,-283.78 112.92,-273.35 104.96,-280.34 111.05,-283.78"/>
<text text-anchor="middle" x="114.5" y="-344.8" font-family="Helvetica,sans-Serif" font-size="9.00">success</text>
</g>
<!-- fallback&#45;&gt;email -->
<g id="edge11" class="edge">
<title>fallback&#45;&gt;email</title>
<path fill="none" stroke="black" stroke-width="1.2" d="M166.47,-328.65C158.85,-315.45 148.23,-297.07 139.58,-282.1"/>
<polygon fill="black" stroke="black" stroke-width="1.2" points="142.53,-280.21 134.5,-273.3 136.47,-283.71 142.53,-280.21"/>
</g>
<!-- email&#45;&gt;beehiiv -->
<!-- mark -->
<g id="node14" class="node">
<title>mark</title>
<path fill="#fef3c7" stroke="#d97706" stroke-width="1.5" d="M69,-191C69,-191 12,-191 12,-191 6,-191 0,-185 0,-179 0,-179 0,-167 0,-167 0,-161 6,-155 12,-155 12,-155 69,-155 69,-155 75,-155 81,-161 81,-167 81,-167 81,-179 81,-179 81,-185 75,-191 69,-191"/>
<text text-anchor="middle" x="40.5" y="-176" font-family="Helvetica,sans-Serif" font-size="10.00">Mark Articles</text>
<text text-anchor="middle" x="40.5" y="-165" font-family="Helvetica,sans-Serif" font-size="10.00">Seen in DB</text>
</g>
<!-- email&#45;&gt;mark -->
<g id="edge12" class="edge">
<title>email&#45;&gt;mark</title>
<path fill="none" stroke="black" stroke-width="1.2" d="M97.4,-238.93C88.6,-233.33 79.14,-226.49 71.5,-219 65.82,-213.43 60.53,-206.68 55.99,-200.12"/>
<polygon fill="black" stroke="black" stroke-width="1.2" points="58.7,-197.87 50.3,-191.42 52.85,-201.7 58.7,-197.87"/>
<text text-anchor="middle" x="89.5" y="-211.8" font-family="Helvetica,sans-Serif" font-size="9.00">success</text>
</g>
<!-- done -->
<g id="node16" class="node">
<title>done</title>
<ellipse fill="#d1fae5" stroke="#059669" stroke-width="1.5" cx="92.5" cy="-18" rx="27" ry="18"/>
<text text-anchor="middle" x="92.5" y="-15.5" font-family="Helvetica,sans-Serif" font-size="10.00">Done</text>
</g>
<!-- email&#45;&gt;done -->
<g id="edge13" class="edge">
<title>email&#45;&gt;done</title>
<path fill="none" stroke="#dc2626" stroke-width="1.2" stroke-dasharray="5,2" d="M122.15,-236.72C116.63,-196.22 102.84,-94.91 96.19,-46.11"/>
<polygon fill="#dc2626" stroke="#dc2626" stroke-width="1.2" points="99.63,-45.42 94.81,-35.99 92.69,-46.37 99.63,-45.42"/>
<text text-anchor="middle" x="115" y="-129.8" font-family="Helvetica,sans-Serif" font-size="9.00" fill="#dc2626">fail</text>
</g>
<!-- save -->
<g id="node15" class="node">
<title>save</title>
<path fill="#ede9fe" stroke="#7c3aed" stroke-width="1.5" d="M74,-109C74,-109 41,-109 41,-109 35,-109 29,-103 29,-97 29,-97 29,-85 29,-85 29,-79 35,-73 41,-73 41,-73 74,-73 74,-73 80,-73 86,-79 86,-85 86,-85 86,-97 86,-97 86,-103 80,-109 74,-109"/>
<text text-anchor="middle" x="57.5" y="-94" font-family="Helvetica,sans-Serif" font-size="10.00">Save for</text>
<text text-anchor="middle" x="57.5" y="-83" font-family="Helvetica,sans-Serif" font-size="10.00">Weekly</text>
</g>
<!-- mark&#45;&gt;save -->
<g id="edge18" class="edge">
<title>mark&#45;&gt;save</title>
<path fill="none" stroke="black" stroke-width="1.2" d="M44.19,-154.64C46.41,-144.19 49.28,-130.67 51.79,-118.86"/>
<polygon fill="black" stroke="black" stroke-width="1.2" points="55.22,-119.56 53.88,-109.05 48.37,-118.1 55.22,-119.56"/>
</g>
<!-- save&#45;&gt;done -->
<g id="edge19" class="edge">
<title>save&#45;&gt;done</title>
<path fill="none" stroke="black" stroke-width="1.2" d="M65.97,-72.81C70.12,-64.41 75.19,-54.11 79.79,-44.79"/>
<polygon fill="black" stroke="black" stroke-width="1.2" points="83.06,-46.06 84.35,-35.54 76.79,-42.96 83.06,-46.06"/>
</g>
</g>
</svg>
