<?xml version="1.0" encoding="UTF-8" standalone="no"?>
<!DOCTYPE svg PUBLIC "-//W3C//DTD SVG 1.1//EN"
 "http://www.w3.org/Graphics/SVG/1.1/DTD/svg11.dtd">
<!-- Generated by graphviz version 2.43.0 (0)
 -->
<!-- Title: podcast Pages: 1 -->
<svg width="2644pt" height="1417pt"
 viewBox="0.00 0.00 952.00 510.00" xmlns="http://www.w3.org/2000/svg" xmlns:xlink="http://www.w3.org/1999/xlink">
<g id="graph0" class="graph" transform="scale(2.78 2.78) rotate(0) translate(36 474)">
<title>podcast</title>
<polygon fill="white" stroke="transparent" points="-36,36 -36,-474 916,-474 916,36 -36,36"/>
<text text-anchor="middle" x="440" y="-424.4" font-family="Helvetica,sans-Serif" font-size="12.00">Podcast Generation Pipeline</text>
<g id="clust1" class="cluster">
<title>cluster_tts</title>
<path fill="#f5f3ff" stroke="#7c3aed" d="M230,-264C230,-264 300,-264 300,-264 306,-264 312,-270 312,-276 312,-276 312,-397 312,-397 312,-403 306,-409 300,-409 300,-409 230,-409 230,-409 224,-409 218,-403 218,-397 218,-397 218,-276 218,-276 218,-270 224,-264 230,-264"/>
<text text-anchor="middle" x="265" y="-395.4" font-family="Helvetica,sans-Serif" font-size="12.00" fill="#7c3aed">OpenAI TTS</text>
</g>
<g id="clust2" class="cluster">
<title>cluster_assets</title>
<path fill="#fefce8" stroke="#ca8a04" d="M360,-8C360,-8 428,-8 428,-8 434,-8 440,-14 440,-20 440,-20 440,-285 440,-285 440,-291 434,-297 428,-297 428,-297 360,-297 360,-297 354,-297 348,-291 348,-285 348,-285 348,-20 348,-20 348,-14 354,-8 360,-8"/>
<text text-anchor="middle" x="394" y="-283.4" font-family="Helvetica,sans-Serif" font-size="12.00" fill="#ca8a04">Audio Assets</text>
</g>
<!-- weekly -->
<g id="node1" class="node">
<title>weekly</title>
<path fill="#fef3c7" stroke="#d97706" stroke-width="1.5" d="M42,-344C42,-344 12,-344 12,-344 6,-344 0,-338 0,-332 0,-332 0,-320 0,-320 0,-314 6,-308 12,-308 12,-308 42,-308 42,-308 48,-308 54,-314 54,-320 54,-320 54,-332 54,-332 54,-338 48,-344 42,-344"/>
<text text-anchor="middle" x="27" y="-329" font-family="Helvetica,sans-Serif" font-size="10.00">Weekly</text>
<text text-anchor="middle" x="27" y="-318" font-family="Helvetica,sans-Serif" font-size="10.00">Digest</text>
</g>
<!-- script -->
<g id="node2" class="node">
<title>script</title>
<path fill="#ede9fe" stroke="#7c3aed" stroke-width="1.5" d="M178,-346.5C178,-346.5 102,-346.5 102,-346.5 96,-346.5 90,-340.5 90,-334.5 90,-334.5 90,-317.5 90,-317.5 90,-311.5 96,-305.5 102,-305.5 102,-305.5 178,-305.5 178,-305.5 184,-305.5 190,-311.5 190,-317.5 190,-317.5 190,-334.5 190,-334.5 190,-340.5 184,-346.5 178,-346.5"/>
<text text-anchor="middle" x="140" y="-334.5" font-family="Helvetica,sans-Serif" font-size="10.00">Claude</text>
<text text-anchor="middle" x="140" y="-323.5" font-family="Helvetica,sans-Serif" font-size="10.00">Script Writer</text>
<text text-anchor="middle" x="140" y="-312.5" font-family="Helvetica,sans-Serif" font-size="10.00">(2&#45;host dialogue)</text>
</g>
<!-- weekly&#45;&gt;script -->
<g id="edge1" class="edge">
<title>weekly&#45;&gt;script</title>
<path fill="none" stroke="black" stroke-width="1.2" d="M54.02,-326C61.75,-326 70.56,-326 79.5,-326"/>
<polygon fill="black" stroke="black" stroke-width="1.2" points="79.6,-329.5 89.6,-326 79.6,-322.5 79.6,-329.5"/>
</g>
<!-- nolan -->
<g id="node3" class="node">
<title>nolan</title>
<path fill="#ede9fe" stroke="#7c3aed" stroke-width="1.5" d="M292,-380C292,-380 238,-380 238,-380 232,-380 226,-374 226,-368 226,-368 226,-356 226,-356 226,-350 232,-344 238,-344 238,-344 292,-344 292,-344 298,-344 304,-350 304,-356 304,-356 304,-368 304,-368 304,-374 298,-380 292,-380"/>
<text text-anchor="middle" x="265" y="-365" font-family="Helvetica,sans-Serif" font-size="10.00">Nolan</text>
<text text-anchor="middle" x="265" y="-354" font-family="Helvetica,sans-Serif" font-size="10.00">(fable voice)</text>
</g>
<!-- script&#45;&gt;nolan -->
<g id="edge2" class="edge">
<title>script&#45;&gt;nolan</title>
<path fill="none" stroke="black" stroke-width="1.2" d="M190.32,-340.44C198.77,-342.91 207.55,-345.48 215.97,-347.94"/>
<polygon fill="black" stroke="black" stroke-width="1.2" points="215.07,-351.33 225.65,-350.78 217.04,-344.61 215.07,-351.33"/>
</g>
<!-- claire -->
<g id="node4" class="node">
<title>claire</title>
<path fill="#ede9fe" stroke="#7c3aed" stroke-width="1.5" d="M291.5,-308C291.5,-308 238.5,-308 238.5,-308 232.5,-308 226.5,-302 226.5,-296 226.5,-296 226.5,-284 226.5,-284 226.5,-278 232.5,-272 238.5,-272 238.5,-272 291.5,-272 291.5,-272 297.5,-272 303.5,-278 303.5,-284 303.5,-284 303.5,-296 303.5,-296 303.5,-302 297.5,-308 291.5,-308"/>
<text text-anchor="middle" x="265" y="-293" font-family="Helvetica,sans-Serif" font-size="10.00">Claire</text>
<text text-anchor="middle" x="265" y="-282" font-family="Helvetica,sans-Serif" font-size="10.00">(nova voice)</text>
</g>
<!-- script&#45;&gt;claire -->
<g id="edge3" class="edge">
<title>script&#45;&gt;claire</title>
<path fill="none" stroke="black" stroke-width="1.2" d="M190.32,-311.56C198.97,-309.03 207.95,-306.41 216.54,-303.89"/>
<polygon fill="black" stroke="black" stroke-width="1.2" points="217.8,-307.17 226.41,-301 215.83,-300.45 217.8,-307.17"/>
</g>
<!-- audio_proc -->
<g id="node5" class="node">
<title>audio_proc</title>
<path fill="#ede9fe" stroke="#7c3aed" stroke-width="1.5" d="M436,-346.5C436,-346.5 352,-346.5 352,-346.5 346,-346.5 340,-340.5 340,-334.5 340,-334.5 340,-317.5 340,-317.5 340,-311.5 346,-305.5 352,-305.5 352,-305.5 436,-305.5 436,-305.5 442,-305.5 448,-311.5 448,-317.5 448,-317.5 448,-334.5 448,-334.5 448,-340.5 442,-346.5 436,-346.5"/>
<text text-anchor="middle" x="394" y="-334.5" font-family="Helvetica,sans-Serif" font-size="10.00">Audio Processing</text>
<text text-anchor="middle" x="394" y="-323.5" font-family="Helvetica,sans-Serif" font-size="10.00">EQ + Compression</text>
<text text-anchor="middle" x="394" y="-312.5" font-family="Helvetica,sans-Serif" font-size="10.00">+ Normalization</text>
</g>
<!-- nolan&#45;&gt;audio_proc -->
<g id="edge4" class="edge">
<title>nolan&#45;&gt;audio_proc</title>
<path fill="none" stroke="black" stroke-width="1.2" d="M304.1,-351.2C312.37,-348.86 321.32,-346.32 330.25,-343.79"/>
<polygon fill="black" stroke="black" stroke-width="1.2" points="331.23,-347.15 339.9,-341.05 329.32,-340.41 331.23,-347.15"/>
</g>
<!-- claire&#45;&gt;audio_proc -->
<g id="edge5" class="edge">
<title>claire&#45;&gt;audio_proc</title>
<path fill="none" stroke="black" stroke-width="1.2" d="M303.76,-300.7C312.03,-303.05 321,-305.59 329.96,-308.13"/>
<polygon fill="black" stroke="black" stroke-width="1.2" points="329.06,-311.51 339.64,-310.87 330.97,-304.78 329.06,-311.51"/>
</g>
<!-- assembly -->
<g id="node10" class="node">
<title>assembly</title>
<path fill="#ede9fe" stroke="#7c3aed" stroke-width="1.5" d="M537,-196C537,-196 496,-196 496,-196 490,-196 484,-190 484,-184 484,-184 484,-172 484,-172 484,-166 490,-160 496,-160 496,-160 537,-160 537,-160 543,-160 549,-166 549,-172 549,-172 549,-184 549,-184 549,-190 543,-196 537,-196"/>
<text text-anchor="middle" x="516.5" y="-181" font-family="Helvetica,sans-Serif" font-size="10.00">pydub</text>
<text text-anchor="middle" x="516.5" y="-170" font-family="Helvetica,sans-Serif" font-size="10.00">Assembly</text>
</g>
<!-- audio_proc&#45;&gt;assembly -->
<g id="edge6" class="edge">
<title>audio_proc&#45;&gt;assembly</title>
<path fill="none" stroke="black" stroke-width="1.2" d="M444.28,-305.17C445.57,-304.16 446.82,-303.1 448,-302 476.78,-275.25 495.99,-233.38 506.32,-205.81"/>
<polygon fill="black" stroke="black" stroke-width="1.2" points="509.63,-206.95 509.73,-196.36 503.05,-204.58 509.63,-206.95"/>
</g>
<!-- intro -->
<g id="node6" class="node">
<title>intro</title>
<path fill="#fef9c3" stroke="#ca8a04" stroke-width="1.5" d="M409,-268C409,-268 379,-268 379,-268 373,-268 367,-262 367,-256 367,-256 367,-244 367,-244 367,-238 373,-232 379,-232 379,-232 409,-232 409,-232 415,-232 421,-238 421,-244 421,-244 421,-256 421,-256 421,-262 415,-268 409,-268"/>
<text text-anchor="middle" x="394" y="-247.5" font-family="Helvetica,sans-Serif" font-size="10.00">Intro</text>
</g>
<!-- intro&#45;&gt;assembly -->
<g id="edge7" class="edge">
<title>intro&#45;&gt;assembly</title>
<path fill="none" stroke="black" stroke-width="1.2" d="M421.15,-234.38C437.33,-224.71 458.4,-212.12 476.52,-201.29"/>
<polygon fill="black" stroke="black" stroke-width="1.2" points="478.36,-204.27 485.15,-196.13 474.77,-198.26 478.36,-204.27"/>
</g>
<!-- outro -->
<g id="node7" class="node">
<title>outro</title>
<path fill="#fef9c3" stroke="#ca8a04" stroke-width="1.5" d="M409,-196C409,-196 379,-196 379,-196 373,-196 367,-190 367,-184 367,-184 367,-172 367,-172 367,-166 373,-160 379,-160 379,-160 409,-160 409,-160 415,-160 421,-166 421,-172 421,-172 421,-184 421,-184 421,-190 415,-196 409,-196"/>
<text text-anchor="middle" x="394" y="-175.5" font-family="Helvetica,sans-Serif" font-size="10.00">Outro</text>
</g>
<!-- outro&#45;&gt;assembly -->
<g id="edge8" class="edge">
<title>outro&#45;&gt;assembly</title>
<path fill="none" stroke="black" stroke-width="1.2" d="M421.15,-178C436.39,-178 455.99,-178 473.36,-178"/>
<polygon fill="black" stroke="black" stroke-width="1.2" points="473.84,-181.5 483.84,-178 473.84,-174.5 473.84,-181.5"/>
</g>
<!-- trans -->
<g id="node8" class="node">
<title>trans</title>
<path fill="#fef9c3" stroke="#ca8a04" stroke-width="1.5" d="M416.5,-124C416.5,-124 371.5,-124 371.5,-124 365.5,-124 359.5,-118 359.5,-112 359.5,-112 359.5,-100 359.5,-100 359.5,-94 365.5,-88 371.5,-88 371.5,-88 416.5,-88 416.5,-88 422.5,-88 428.5,-94 428.5,-100 428.5,-100 428.5,-112 428.5,-112 428.5,-118 422.5,-124 416.5,-124"/>
<text text-anchor="middle" x="394" y="-103.5" font-family="Helvetica,sans-Serif" font-size="10.00">Transitions</text>
</g>
<!-- trans&#45;&gt;assembly -->
<g id="edge9" class="edge">
<title>trans&#45;&gt;assembly</title>
<path fill="none" stroke="black" stroke-width="1.2" d="M425.41,-124.17C440.82,-133.38 459.72,-144.67 476.22,-154.53"/>
<polygon fill="black" stroke="black" stroke-width="1.2" points="474.72,-157.71 485.1,-159.84 478.31,-151.7 474.72,-157.71"/>
</g>
<!-- bed -->
<g id="node9" class="node">
<title>bed</title>
<path fill="#fef9c3" stroke="#ca8a04" stroke-width="1.5" d="M419,-52C419,-52 369,-52 369,-52 363,-52 357,-46 357,-40 357,-40 357,-28 357,-28 357,-22 363,-16 369,-16 369,-16 419,-16 419,-16 425,-16 431,-22 431,-28 431,-28 431,-40 431,-40 431,-46 425,-52 419,-52"/>
<text text-anchor="middle" x="394" y="-31.5" font-family="Helvetica,sans-Serif" font-size="10.00">Background</text>
</g>
<!-- bed&#45;&gt;assembly -->
<g id="edge10" class="edge">
<title>bed&#45;&gt;assembly</title>
<path fill="none" stroke="black" stroke-width="1.2" d="M426.4,-52.18C433.96,-57.37 441.67,-63.43 448,-70 471.32,-94.22 490.75,-127.77 502.68,-151.02"/>
<polygon fill="black" stroke="black" stroke-width="1.2" points="499.57,-152.62 507.18,-159.99 505.83,-149.49 499.57,-152.62"/>
</g>
<!-- mp3 -->
<g id="node11" class="node">
<title>mp3</title>
<polygon fill="#d1fae5" stroke="#059669" stroke-width="1.5" points="654,-196 589,-196 585,-192 585,-160 650,-160 654,-164 654,-196"/>
<polyline fill="none" stroke="#059669" stroke-width="1.5" points="650,-192 585,-192 "/>
<polyline fill="none" stroke="#059669" stroke-width="1.5" points="650,-192 650,-160 "/>
<polyline fill="none" stroke="#059669" stroke-width="1.5" points="650,-192 654,-196 "/>
<text text-anchor="middle" x="619.5" y="-181" font-family="Helvetica,sans-Serif" font-size="10.00">Final MP3</text>
<text text-anchor="middle" x="619.5" y="-170" font-family="Helvetica,sans-Serif" font-size="10.00">+ ID3 Tags</text>
</g>
<!-- assembly&#45;&gt;mp3 -->
<g id="edge11" class="edge">
<title>assembly&#45;&gt;mp3</title>
<path fill="none" stroke="black" stroke-width="1.2" d="M549.18,-178C557.24,-178 566.05,-178 574.6,-178"/>
<polygon fill="black" stroke="black" stroke-width="1.2" points="574.84,-181.5 584.84,-178 574.84,-174.5 574.84,-181.5"/>
</g>
<!-- transcribe -->
<g id="node12" class="node">
<title>transcribe</title>
<path fill="#ede9fe" stroke="#7c3aed" stroke-width="1.5" d="M757,-232C757,-232 702,-232 702,-232 696,-232 690,-226 690,-220 690,-220 690,-208 690,-208 690,-202 696,-196 702,-196 702,-196 757,-196 757,-196 763,-196 769,-202 769,-208 769,-208 769,-220 769,-220 769,-226 763,-232 757,-232"/>
<text text-anchor="middle" x="729.5" y="-217" font-family="Helvetica,sans-Serif" font-size="10.00">Whisper</text>
<text text-anchor="middle" x="729.5" y="-206" font-family="Helvetica,sans-Serif" font-size="10.00">Transcription</text>
</g>
<!-- mp3&#45;&gt;transcribe -->
<g id="edge12" class="edge">
<title>mp3&#45;&gt;transcribe</title>
<path fill="none" stroke="black" stroke-width="1.2" d="M654.08,-189.19C662.27,-191.92 671.19,-194.9 679.92,-197.81"/>
<polygon fill="black" stroke="black" stroke-width="1.2" points="679.06,-201.21 689.65,-201.05 681.27,-194.57 679.06,-201.21"/>
</g>
<!-- release -->
<g id="node14" class="node">
<title>release</title>
<path fill="#d1fae5" stroke="#059669" stroke-width="1.5" d="M745.5,-160C745.5,-160 713.5,-160 713.5,-160 707.5,-160 701.5,-154 701.5,-148 701.5,-148 701.5,-136 701.5,-136 701.5,-130 707.5,-124 713.5,-124 713.5,-124 745.5,-124 745.5,-124 751.5,-124 757.5,-130 757.5,-136 757.5,-136 757.5,-148 757.5,-148 757.5,-154 751.5,-160 745.5,-160"/>
<text text-anchor="middle" x="729.5" y="-145" font-family="Helvetica,sans-Serif" font-size="10.00">GitHub</text>
<text text-anchor="middle" x="729.5" y="-134" font-family="Helvetica,sans-Serif" font-size="10.00">Release</text>
</g>
<!-- mp3&#45;&gt;release -->
<g id="edge13" class="edge">
<title>mp3&#45;&gt;release</title>
<path fill="none" stroke="black" stroke-width="1.2" d="M654.08,-166.81C665.98,-162.84 679.43,-158.36 691.59,-154.3"/>
<polygon fill="black" stroke="black" stroke-width="1.2" points="693.07,-157.5 701.45,-151.02 690.85,-150.86 693.07,-157.5"/>
</g>
<!-- notes -->
<g id="node13" class="node">
<title>notes</title>
<path fill="#ede9fe" stroke="#7c3aed" stroke-width="1.5" d="M868,-232C868,-232 817,-232 817,-232 811,-232 805,-226 805,-220 805,-220 805,-208 805,-208 805,-202 811,-196 817,-196 817,-196 868,-196 868,-196 874,-196 880,-202 880,-208 880,-208 880,-220 880,-220 880,-226 874,-232 868,-232"/>
<text text-anchor="middle" x="842.5" y="-217" font-family="Helvetica,sans-Serif" font-size="10.00">Show Notes</text>
<text text-anchor="middle" x="842.5" y="-206" font-family="Helvetica,sans-Serif" font-size="10.00">MD + HTML</text>
</g>
<!-- transcribe&#45;&gt;notes -->
<g id="edge14" class="edge">
<title>transcribe&#45;&gt;notes</title>
<path fill="none" stroke="black" stroke-width="1.2" d="M769.01,-214C777.29,-214 786.13,-214 794.69,-214"/>
<polygon fill="black" stroke="black" stroke-width="1.2" points="794.93,-217.5 804.92,-214 794.92,-210.5 794.93,-217.5"/>
</g>
<!-- rss -->
<g id="node15" class="node">
<title>rss</title>
<path fill="#d1fae5" stroke="#059669" stroke-width="1.5" d="M866,-160C866,-160 819,-160 819,-160 813,-160 807,-154 807,-148 807,-148 807,-136 807,-136 807,-130 813,-124 819,-124 819,-124 866,-124 866,-124 872,-124 878,-130 878,-136 878,-136 878,-148 878,-148 878,-154 872,-160 866,-160"/>
<text text-anchor="middle" x="842.5" y="-145" font-family="Helvetica,sans-Serif" font-size="10.00">RSS Feed</text>
<text text-anchor="middle" x="842.5" y="-134" font-family="Helvetica,sans-Serif" font-size="10.00">iTunes XML</text>
</g>
<!-- release&#45;&gt;rss -->
<g id="edge15" class="edge">
<title>release&#45;&gt;rss</title>
<path fill="none" stroke="black" stroke-width="1.2" d="M757.65,-142C769.3,-142 783.23,-142 796.35,-142"/>
<polygon fill="black" stroke="black" stroke-width="1.2" points="796.65,-145.5 806.65,-142 796.65,-138.5 796.65,-145.5"/>
</g>
</g>
</svg>
