<?xml version="1.0" encoding="UTF-8" standalone="no"?>
<!DOCTYPE svg PUBLIC "-//W3C//DTD SVG 1.1//EN"
 "http://www.w3.org/Graphics/SVG/1.1/DTD/svg11.dtd">
<!-- Generated by graphviz version 2.43.0 (0)
 -->
<!-- Title: website Pages: 1 -->
<svg width="2300pt" height="2210pt"
 viewBox="0.00 0.00 828.00 795.43" xmlns="http://www.w3.org/2000/svg" xmlns:xlink="http://www.w3.org/1999/xlink">
<g id="graph0" class="graph" transform="scale(2.78 2.78) rotate(0) translate(36 759.43)">
<title>website</title>
<polygon fill="white" stroke="transparent" points="-36,36 -36,-759.43 792,-759.43 792,36 -36,36"/>
<text text-anchor="middle" x="378" y="-709.83" font-family="Helvetica,sans-Serif" font-size="12.00">Vercel Website Data Flow</text>
<g id="clust1" class="cluster">
<title>cluster_transform</title>
<path fill="#ecfeff" stroke="#0891b2" d="M20,-488.43C20,-488.43 736,-488.43 736,-488.43 742,-488.43 748,-494.43 748,-500.43 748,-500.43 748,-554.43 748,-554.43 748,-560.43 742,-566.43 736,-566.43 736,-566.43 20,-566.43 20,-566.43 14,-566.43 8,-560.43 8,-554.43 8,-554.43 8,-500.43 8,-500.43 8,-494.43 14,-488.43 20,-488.43"/>
<text text-anchor="middle" x="378" y="-552.83" font-family="Helvetica,sans-Serif" font-size="12.00" fill="#0891b2">Data Transformation</text>
</g>
<g id="clust2" class="cluster">
<title>cluster_push</title>
<path fill="#ecfdf5" stroke="#059669" d="M330,-71.43C330,-71.43 426,-71.43 426,-71.43 432,-71.43 438,-77.43 438,-83.43 438,-83.43 438,-205.43 438,-205.43 438,-211.43 432,-217.43 426,-217.43 426,-217.43 330,-217.43 330,-217.43 324,-217.43 318,-211.43 318,-205.43 318,-205.43 318,-83.43 318,-83.43 318,-77.43 324,-71.43 330,-71.43"/>
<text text-anchor="middle" x="378" y="-203.83" font-family="Helvetica,sans-Serif" font-size="12.00" fill="#059669">GitHub API Push</text>
</g>
<!-- main -->
<g id="node1" class="node">
<title>main</title>
<path fill="#fef3c7" stroke="#d97706" stroke-width="1.5" d="M447.5,-702.43C447.5,-702.43 382.5,-702.43 382.5,-702.43 376.5,-702.43 370.5,-696.43 370.5,-690.43 370.5,-690.43 370.5,-678.43 370.5,-678.43 370.5,-672.43 376.5,-666.43 382.5,-666.43 382.5,-666.43 447.5,-666.43 447.5,-666.43 453.5,-666.43 459.5,-672.43 459.5,-678.43 459.5,-678.43 459.5,-690.43 459.5,-690.43 459.5,-696.43 453.5,-702.43 447.5,-702.43"/>
<text text-anchor="middle" x="415" y="-687.43" font-family="Helvetica,sans-Serif" font-size="10.00">main.py</text>
<text text-anchor="middle" x="415" y="-676.43" font-family="Helvetica,sans-Serif" font-size="10.00">All source data</text>
</g>
<!-- build -->
<g id="node2" class="node">
<title>build</title>
<path fill="#cffafe" stroke="#0891b2" stroke-width="1.5" d="M462.5,-629.43C462.5,-629.43 367.5,-629.43 367.5,-629.43 361.5,-629.43 355.5,-623.43 355.5,-617.43 355.5,-617.43 355.5,-605.43 355.5,-605.43 355.5,-599.43 361.5,-593.43 367.5,-593.43 367.5,-593.43 462.5,-593.43 462.5,-593.43 468.5,-593.43 474.5,-599.43 474.5,-605.43 474.5,-605.43 474.5,-617.43 474.5,-617.43 474.5,-623.43 468.5,-629.43 462.5,-629.43"/>
<text text-anchor="middle" x="415" y="-614.43" font-family="Helvetica,sans-Serif" font-size="10.00">website.py</text>
<text text-anchor="middle" x="415" y="-603.43" font-family="Helvetica,sans-Serif" font-size="10.00">build_website_data()</text>
</g>
<!-- main&#45;&gt;build -->
<g id="edge1" class="edge">
<title>main&#45;&gt;build</title>
<path fill="none" stroke="black" stroke-width="1.2" d="M415,-666.24C415,-658.22 415,-648.47 415,-639.5"/>
<polygon fill="black" stroke="black" stroke-width="1.2" points="418.5,-639.46 415,-629.46 411.5,-639.46 418.5,-639.46"/>
</g>
<!-- classify -->
<g id="node3" class="node">
<title>classify</title>
<path fill="#cffafe" stroke="#0891b2" stroke-width="1.5" d="M202,-537.43C202,-537.43 28,-537.43 28,-537.43 22,-537.43 16,-531.43 16,-525.43 16,-525.43 16,-508.43 16,-508.43 16,-502.43 22,-496.43 28,-496.43 28,-496.43 202,-496.43 202,-496.43 208,-496.43 214,-502.43 214,-508.43 214,-508.43 214,-525.43 214,-525.43 214,-531.43 208,-537.43 202,-537.43"/>
<text text-anchor="middle" x="115" y="-525.43" font-family="Helvetica,sans-Serif" font-size="10.00">Classify Articles</text>
<text text-anchor="middle" x="115" y="-514.43" font-family="Helvetica,sans-Serif" font-size="10.00">aortic / mitral / tricuspid</text>
<text text-anchor="middle" x="115" y="-503.43" font-family="Helvetica,sans-Serif" font-size="10.00">surgical / trials / regulatory / financial</text>
</g>
<!-- build&#45;&gt;classify -->
<g id="edge2" class="edge">
<title>build&#45;&gt;classify</title>
<path fill="none" stroke="black" stroke-width="1.2" d="M355.35,-599.9C317.01,-592.37 266.44,-581 223,-566.43 202.75,-559.63 181.14,-550.36 162.61,-541.74"/>
<polygon fill="black" stroke="black" stroke-width="1.2" points="164.04,-538.55 153.5,-537.44 161.05,-544.88 164.04,-538.55"/>
</g>
<!-- og_img -->
<g id="node4" class="node">
<title>og_img</title>
<path fill="#cffafe" stroke="#0891b2" stroke-width="1.5" d="M320,-534.93C320,-534.93 244,-534.93 244,-534.93 238,-534.93 232,-528.93 232,-522.93 232,-522.93 232,-510.93 232,-510.93 232,-504.93 238,-498.93 244,-498.93 244,-498.93 320,-498.93 320,-498.93 326,-498.93 332,-504.93 332,-510.93 332,-510.93 332,-522.93 332,-522.93 332,-528.93 326,-534.93 320,-534.93"/>
<text text-anchor="middle" x="282" y="-519.93" font-family="Helvetica,sans-Serif" font-size="10.00">Fetch OG Images</text>
<text text-anchor="middle" x="282" y="-508.93" font-family="Helvetica,sans-Serif" font-size="10.00">(first 20 articles)</text>
</g>
<!-- build&#45;&gt;og_img -->
<g id="edge3" class="edge">
<title>build&#45;&gt;og_img</title>
<path fill="none" stroke="black" stroke-width="1.2" d="M384.58,-593.35C371.24,-585.55 355.57,-575.94 342,-566.43 331.12,-558.8 319.66,-549.8 309.7,-541.64"/>
<polygon fill="black" stroke="black" stroke-width="1.2" points="311.67,-538.72 301.74,-535.03 307.2,-544.11 311.67,-538.72"/>
</g>
<!-- extract -->
<g id="node5" class="node">
<title>extract</title>
<path fill="#cffafe" stroke="#0891b2" stroke-width="1.5" d="M467.5,-534.93C467.5,-534.93 362.5,-534.93 362.5,-534.93 356.5,-534.93 350.5,-528.93 350.5,-522.93 350.5,-522.93 350.5,-510.93 350.5,-510.93 350.5,-504.93 356.5,-498.93 362.5,-498.93 362.5,-498.93 467.5,-498.93 467.5,-498.93 473.5,-498.93 479.5,-504.93 479.5,-510.93 479.5,-510.93 479.5,-522.93 479.5,-522.93 479.5,-528.93 473.5,-534.93 467.5,-534.93"/>
<text text-anchor="middle" x="415" y="-519.93" font-family="Helvetica,sans-Serif" font-size="10.00">Extract Executive</text>
<text text-anchor="middle" x="415" y="-508.93" font-family="Helvetica,sans-Serif" font-size="10.00">Summary + Key Points</text>
</g>
<!-- build&#45;&gt;extract -->
<g id="edge4" class="edge">
<title>build&#45;&gt;extract</title>
<path fill="none" stroke="black" stroke-width="1.2" d="M415,-593.03C415,-579.51 415,-560.51 415,-545"/>
<polygon fill="black" stroke="black" stroke-width="1.2" points="418.5,-544.93 415,-534.93 411.5,-544.93 418.5,-544.93"/>
</g>
<!-- stock_fmt -->
<g id="node6" class="node">
<title>stock_fmt</title>
<path fill="#cffafe" stroke="#0891b2" stroke-width="1.5" d="M628,-534.93C628,-534.93 510,-534.93 510,-534.93 504,-534.93 498,-528.93 498,-522.93 498,-522.93 498,-510.93 498,-510.93 498,-504.93 504,-498.93 510,-498.93 510,-498.93 628,-498.93 628,-498.93 634,-498.93 640,-504.93 640,-510.93 640,-510.93 640,-522.93 640,-522.93 640,-528.93 634,-534.93 628,-534.93"/>
<text text-anchor="middle" x="569" y="-519.93" font-family="Helvetica,sans-Serif" font-size="10.00">Format Stock Data</text>
<text text-anchor="middle" x="569" y="-508.93" font-family="Helvetica,sans-Serif" font-size="10.00">EW MDT ABT BSX AVR.AX</text>
</g>
<!-- build&#45;&gt;stock_fmt -->
<g id="edge5" class="edge">
<title>build&#45;&gt;stock_fmt</title>
<path fill="none" stroke="black" stroke-width="1.2" d="M443.85,-593.35C457.55,-585.22 474.14,-575.35 489,-566.43 503.16,-557.92 518.7,-548.52 532.29,-540.27"/>
<polygon fill="black" stroke="black" stroke-width="1.2" points="534.17,-543.23 540.9,-535.04 530.53,-537.24 534.17,-543.23"/>
</g>
<!-- pod_ep -->
<g id="node7" class="node">
<title>pod_ep</title>
<path fill="#cffafe" stroke="#0891b2" stroke-width="1.5" d="M727.5,-534.93C727.5,-534.93 670.5,-534.93 670.5,-534.93 664.5,-534.93 658.5,-528.93 658.5,-522.93 658.5,-522.93 658.5,-510.93 658.5,-510.93 658.5,-504.93 664.5,-498.93 670.5,-498.93 670.5,-498.93 727.5,-498.93 727.5,-498.93 733.5,-498.93 739.5,-504.93 739.5,-510.93 739.5,-510.93 739.5,-522.93 739.5,-522.93 739.5,-528.93 733.5,-534.93 727.5,-534.93"/>
<text text-anchor="middle" x="699" y="-519.93" font-family="Helvetica,sans-Serif" font-size="10.00">Load Podcast</text>
<text text-anchor="middle" x="699" y="-508.93" font-family="Helvetica,sans-Serif" font-size="10.00">Episodes</text>
</g>
<!-- build&#45;&gt;pod_ep -->
<g id="edge6" class="edge">
<title>build&#45;&gt;pod_ep</title>
<path fill="none" stroke="black" stroke-width="1.2" d="M474.8,-608.64C524.01,-605.02 594.31,-594.76 649,-566.43 660.13,-560.66 670.44,-551.61 678.78,-542.89"/>
<polygon fill="black" stroke="black" stroke-width="1.2" points="681.44,-545.16 685.56,-535.39 676.25,-540.46 681.44,-545.16"/>
</g>
<!-- json -->
<g id="node8" class="node">
<title>json</title>
<polygon fill="#f3f4f6" stroke="#6b7280" stroke-width="1.5" points="456,-459.43 368,-459.43 368,-423.43 462,-423.43 462,-453.43 456,-459.43"/>
<polyline fill="none" stroke="#6b7280" stroke-width="1.5" points="456,-459.43 456,-453.43 "/>
<polyline fill="none" stroke="#6b7280" stroke-width="1.5" points="462,-453.43 456,-453.43 "/>
<text text-anchor="middle" x="415" y="-438.93" font-family="Helvetica,sans-Serif" font-size="10.00">Structured JSON</text>
</g>
<!-- classify&#45;&gt;json -->
<g id="edge7" class="edge">
<title>classify&#45;&gt;json</title>
<path fill="none" stroke="black" stroke-width="1.2" d="M191.08,-496.41C201.79,-493.7 212.67,-490.98 223,-488.43 268.21,-477.26 319.51,-464.99 357.7,-455.93"/>
<polygon fill="black" stroke="black" stroke-width="1.2" points="358.69,-459.29 367.61,-453.58 357.07,-452.48 358.69,-459.29"/>
</g>
<!-- og_img&#45;&gt;json -->
<g id="edge8" class="edge">
<title>og_img&#45;&gt;json</title>
<path fill="none" stroke="black" stroke-width="1.2" d="M312.85,-498.88C331.35,-488.66 355.07,-475.54 375,-464.53"/>
<polygon fill="black" stroke="black" stroke-width="1.2" points="376.8,-467.54 383.86,-459.64 373.41,-461.41 376.8,-467.54"/>
</g>
<!-- extract&#45;&gt;json -->
<g id="edge9" class="edge">
<title>extract&#45;&gt;json</title>
<path fill="none" stroke="black" stroke-width="1.2" d="M415,-498.88C415,-490.22 415,-479.49 415,-469.72"/>
<polygon fill="black" stroke="black" stroke-width="1.2" points="418.5,-469.64 415,-459.64 411.5,-469.64 418.5,-469.64"/>
</g>
<!-- stock_fmt&#45;&gt;json -->
<g id="edge10" class="edge">
<title>stock_fmt&#45;&gt;json</title>
<path fill="none" stroke="black" stroke-width="1.2" d="M533.28,-498.88C511.4,-488.43 483.2,-474.97 459.82,-463.82"/>
<polygon fill="black" stroke="black" stroke-width="1.2" points="461.32,-460.66 450.79,-459.51 458.31,-466.97 461.32,-460.66"/>
</g>
<!-- pod_ep&#45;&gt;json -->
<g id="edge11" class="edge">
<title>pod_ep&#45;&gt;json</title>
<path fill="none" stroke="black" stroke-width="1.2" d="M671.42,-498.78C664.32,-494.93 656.54,-491.17 649,-488.43 590.69,-467.24 520.47,-455.1 472.26,-448.67"/>
<polygon fill="black" stroke="black" stroke-width="1.2" points="472.69,-445.19 462.32,-447.38 471.79,-452.14 472.69,-445.19"/>
</g>
<!-- merge -->
<g id="node9" class="node">
<title>merge</title>
<path fill="#f3f4f6" stroke="#6b7280" stroke-width="1.5" d="M351.84,-382.02C351.84,-382.02 298.16,-360.83 298.16,-360.83 292.58,-358.63 292.58,-354.22 298.16,-352.02 298.16,-352.02 351.84,-330.83 351.84,-330.83 357.42,-328.63 368.58,-328.63 374.16,-330.83 374.16,-330.83 427.84,-352.02 427.84,-352.02 433.42,-354.22 433.42,-358.63 427.84,-360.83 427.84,-360.83 374.16,-382.02 374.16,-382.02 368.58,-384.22 357.42,-384.22 351.84,-382.02"/>
<text text-anchor="middle" x="363" y="-359.43" font-family="Helvetica,sans-Serif" font-size="10.00">Sparse day?</text>
<text text-anchor="middle" x="363" y="-348.43" font-family="Helvetica,sans-Serif" font-size="10.00">&lt; 5 articles</text>
</g>
<!-- json&#45;&gt;merge -->
<g id="edge12" class="edge">
<title>json&#45;&gt;merge</title>
<path fill="none" stroke="black" stroke-width="1.2" d="M404.23,-423.23C398.11,-413.47 390.26,-400.93 383.05,-389.43"/>
<polygon fill="black" stroke="black" stroke-width="1.2" points="385.98,-387.51 377.7,-380.9 380.05,-391.23 385.98,-387.51"/>
</g>
<!-- archive -->
<g id="node12" class="node">
<title>archive</title>
<path fill="#d1fae5" stroke="#059669" stroke-width="1.5" d="M418,-115.43C418,-115.43 338,-115.43 338,-115.43 332,-115.43 326,-109.43 326,-103.43 326,-103.43 326,-91.43 326,-91.43 326,-85.43 332,-79.43 338,-79.43 338,-79.43 418,-79.43 418,-79.43 424,-79.43 430,-85.43 430,-91.43 430,-91.43 430,-103.43 430,-103.43 430,-109.43 424,-115.43 418,-115.43"/>
<text text-anchor="middle" x="378" y="-100.43" font-family="Helvetica,sans-Serif" font-size="10.00">digests/</text>
<text text-anchor="middle" x="378" y="-89.43" font-family="Helvetica,sans-Serif" font-size="10.00">YYYY&#45;MM&#45;DD.json</text>
</g>
<!-- json&#45;&gt;archive -->
<!-- fill -->
<g id="node10" class="node">
<title>fill</title>
<path fill="#fef3c7" stroke="#d97706" stroke-width="1.5" d="M323,-280.43C323,-280.43 267,-280.43 267,-280.43 261,-280.43 255,-274.43 255,-268.43 255,-268.43 255,-256.43 255,-256.43 255,-250.43 261,-244.43 267,-244.43 267,-244.43 323,-244.43 323,-244.43 329,-244.43 335,-250.43 335,-256.43 335,-256.43 335,-268.43 335,-268.43 335,-274.43 329,-280.43 323,-280.43"/>
<text text-anchor="middle" x="295" y="-265.43" font-family="Helvetica,sans-Serif" font-size="10.00">Fill from</text>
<text text-anchor="middle" x="295" y="-254.43" font-family="Helvetica,sans-Serif" font-size="10.00">previous day</text>
</g>
<!-- merge&#45;&gt;fill -->
<g id="edge13" class="edge">
<title>merge&#45;&gt;fill</title>
<path fill="none" stroke="black" stroke-width="1.2" stroke-dasharray="5,2" d="M346.19,-332.68C336.35,-319.38 323.91,-302.55 313.76,-288.81"/>
<polygon fill="black" stroke="black" stroke-width="1.2" points="316.54,-286.67 307.78,-280.71 310.91,-290.83 316.54,-286.67"/>
<text text-anchor="middle" x="334" y="-301.23" font-family="Helvetica,sans-Serif" font-size="9.00">yes</text>
</g>
<!-- latest -->
<g id="node11" class="node">
<title>latest</title>
<path fill="#d1fae5" stroke="#059669" stroke-width="1.5" d="M382,-188.43C382,-188.43 338,-188.43 338,-188.43 332,-188.43 326,-182.43 326,-176.43 326,-176.43 326,-164.43 326,-164.43 326,-158.43 332,-152.43 338,-152.43 338,-152.43 382,-152.43 382,-152.43 388,-152.43 394,-158.43 394,-164.43 394,-164.43 394,-176.43 394,-176.43 394,-182.43 388,-188.43 382,-188.43"/>
<text text-anchor="middle" x="360" y="-167.93" font-family="Helvetica,sans-Serif" font-size="10.00">latest.json</text>
</g>
<!-- merge&#45;&gt;latest -->
<g id="edge14" class="edge">
<title>merge&#45;&gt;latest</title>
<path fill="none" stroke="black" stroke-width="1.2" d="M362.52,-326.27C361.96,-291.34 361.01,-233.26 360.45,-199.03"/>
<polygon fill="black" stroke="black" stroke-width="1.2" points="363.95,-198.76 360.28,-188.82 356.95,-198.87 363.95,-198.76"/>
<text text-anchor="middle" x="367" y="-260.23" font-family="Helvetica,sans-Serif" font-size="9.00">no</text>
</g>
<!-- merge&#45;&gt;archive -->
<!-- fill&#45;&gt;latest -->
<g id="edge15" class="edge">
<title>fill&#45;&gt;latest</title>
<path fill="none" stroke="black" stroke-width="1.2" d="M307.53,-244.07C317.15,-230.75 330.59,-212.15 341.45,-197.11"/>
<polygon fill="black" stroke="black" stroke-width="1.2" points="344.49,-198.88 347.51,-188.73 338.81,-194.78 344.49,-198.88"/>
</g>
<!-- latest&#45;&gt;archive -->
<!-- vercel -->
<g id="node13" class="node">
<title>vercel</title>
<ellipse fill="#d1fae5" stroke="#059669" stroke-width="1.5" cx="310" cy="-21.21" rx="54.39" ry="21.43"/>
<text text-anchor="middle" x="310" y="-24.21" font-family="Helvetica,sans-Serif" font-size="10.00">Vercel</text>
<text text-anchor="middle" x="310" y="-13.21" font-family="Helvetica,sans-Serif" font-size="10.00">Auto&#45;Deploy</text>
</g>
<!-- latest&#45;&gt;vercel -->
<g id="edge19" class="edge">
<title>latest&#45;&gt;vercel</title>
<path fill="none" stroke="black" stroke-width="1.2" d="M341.82,-152.2C332.68,-142.36 322.43,-129.26 317,-115.43 309.19,-95.51 307.57,-71.38 307.83,-52.66"/>
<polygon fill="black" stroke="black" stroke-width="1.2" points="311.33,-52.72 308.16,-42.61 304.33,-52.49 311.33,-52.72"/>
</g>
<!-- archive&#45;&gt;vercel -->
<g id="edge20" class="edge">
<title>archive&#45;&gt;vercel</title>
<path fill="none" stroke="black" stroke-width="1.2" stroke-dasharray="5,2" d="M362.23,-79.21C353.97,-70.21 343.69,-58.98 334.43,-48.87"/>
<polygon fill="black" stroke="black" stroke-width="1.2" points="336.94,-46.43 327.6,-41.42 331.78,-51.16 336.94,-46.43"/>
</g>
</g>
</svg>
