<?xml version="1.0" encoding="UTF-8" standalone="no"?>
<!DOCTYPE svg PUBLIC "-//W3C//DTD SVG 1.1//EN"
 "http://www.w3.org/Graphics/SVG/1.1/DTD/svg11.dtd">
<!-- Generated by graphviz version 2.43.0 (0)
 -->
<!-- Title: infra Pages: 1 -->
<svg width="1783pt" height="2190pt"
 viewBox="0.00 0.00 642.00 788.50" xmlns="http://www.w3.org/2000/svg" xmlns:xlink="http://www.w3.org/1999/xlink">
<g id="graph0" class="graph" transform="scale(2.78 2.78) rotate(0) translate(36 752.5)">
<title>infra</title>
<polygon fill="white" stroke="transparent" points="-36,36 -36,-752.5 606,-752.5 606,36 -36,36"/>
<text text-anchor="middle" x="285" y="-702.9" font-family="Helvetica,sans-Serif" font-size="12.00">Infrastructure &amp; Services</text>
<g id="clust1" class="cluster">
<title>cluster_ci</title>
<path fill="#f0f9ff" stroke="#2563eb" d="M20,-419.5C20,-419.5 269,-419.5 269,-419.5 275,-419.5 281,-425.5 281,-431.5 281,-431.5 281,-675.5 281,-675.5 281,-681.5 275,-687.5 269,-687.5 269,-687.5 20,-687.5 20,-687.5 14,-687.5 8,-681.5 8,-675.5 8,-675.5 8,-431.5 8,-431.5 8,-425.5 14,-419.5 20,-419.5"/>
<text text-anchor="middle" x="144.5" y="-673.9" font-family="Helvetica,sans-Serif" font-size="12.00" fill="#2563eb">GitHub Actions (CI/CD)</text>
</g>
<g id="clust2" class="cluster">
<title>cluster_railway</title>
<path fill="#fdf2f8" stroke="#db2777" d="M189.5,-338.5C189.5,-338.5 262.5,-338.5 262.5,-338.5 268.5,-338.5 274.5,-344.5 274.5,-350.5 274.5,-350.5 274.5,-399.5 274.5,-399.5 274.5,-405.5 268.5,-411.5 262.5,-411.5 262.5,-411.5 189.5,-411.5 189.5,-411.5 183.5,-411.5 177.5,-405.5 177.5,-399.5 177.5,-399.5 177.5,-350.5 177.5,-350.5 177.5,-344.5 183.5,-338.5 189.5,-338.5"/>
<text text-anchor="middle" x="226" y="-397.9" font-family="Helvetica,sans-Serif" font-size="12.00" fill="#db2777">Railway</text>
</g>
<g id="clust3" class="cluster">
<title>cluster_services</title>
<path fill="#fffbeb" stroke="#d97706" d="M314,-24.5C314,-24.5 409,-24.5 409,-24.5 415,-24.5 421,-30.5 421,-36.5 421,-36.5 421,-410.5 421,-410.5 421,-416.5 415,-422.5 409,-422.5 409,-422.5 314,-422.5 314,-422.5 308,-422.5 302,-416.5 302,-410.5 302,-410.5 302,-36.5 302,-36.5 302,-30.5 308,-24.5 314,-24.5"/>
<text text-anchor="middle" x="361.5" y="-408.9" font-family="Helvetica,sans-Serif" font-size="12.00" fill="#d97706">External Services</text>
</g>
<g id="clust4" class="cluster">
<title>cluster_publish</title>
<path fill="#ecfdf5" stroke="#059669" d="M454,-354.5C454,-354.5 550,-354.5 550,-354.5 556,-354.5 562,-360.5 562,-366.5 562,-366.5 562,-545.5 562,-545.5 562,-551.5 556,-557.5 550,-557.5 550,-557.5 454,-557.5 454,-557.5 448,-557.5 442,-551.5 442,-545.5 442,-545.5 442,-366.5 442,-366.5 442,-360.5 448,-354.5 454,-354.5"/>
<text text-anchor="middle" x="502" y="-543.9" font-family="Helvetica,sans-Serif" font-size="12.00" fill="#059669">Publishing</text>
</g>
<!-- daily -->
<g id="node1" class="node">
<title>daily</title>
<path fill="#dbeafe" stroke="#2563eb" stroke-width="1.5" d="M92.5,-463.5C92.5,-463.5 30.5,-463.5 30.5,-463.5 24.5,-463.5 18.5,-457.5 18.5,-451.5 18.5,-451.5 18.5,-439.5 18.5,-439.5 18.5,-433.5 24.5,-427.5 30.5,-427.5 30.5,-427.5 92.5,-427.5 92.5,-427.5 98.5,-427.5 104.5,-433.5 104.5,-439.5 104.5,-439.5 104.5,-451.5 104.5,-451.5 104.5,-457.5 98.5,-463.5 92.5,-463.5"/>
<text text-anchor="middle" x="61.5" y="-448.5" font-family="Helvetica,sans-Serif" font-size="10.00">daily&#45;digest</text>
<text text-anchor="middle" x="61.5" y="-437.5" font-family="Helvetica,sans-Serif" font-size="10.00">Daily 6 AM CT</text>
</g>
<!-- anthropic -->
<g id="node7" class="node">
<title>anthropic</title>
<path fill="#fef3c7" stroke="#d97706" stroke-width="1.5" d="M384,-263.5C384,-263.5 339,-263.5 339,-263.5 333,-263.5 327,-257.5 327,-251.5 327,-251.5 327,-239.5 327,-239.5 327,-233.5 333,-227.5 339,-227.5 339,-227.5 384,-227.5 384,-227.5 390,-227.5 396,-233.5 396,-239.5 396,-239.5 396,-251.5 396,-251.5 396,-257.5 390,-263.5 384,-263.5"/>
<text text-anchor="middle" x="361.5" y="-248.5" font-family="Helvetica,sans-Serif" font-size="10.00">Anthropic</text>
<text text-anchor="middle" x="361.5" y="-237.5" font-family="Helvetica,sans-Serif" font-size="10.00">Claude API</text>
</g>
<!-- daily&#45;&gt;anthropic -->
<g id="edge1" class="edge">
<title>daily&#45;&gt;anthropic</title>
<path fill="none" stroke="black" stroke-width="1.2" d="M62.89,-427.47C64.72,-363.01 74.59,-145.54 125,-103.5 182.01,-55.97 237.19,-53.45 292,-103.5 310.12,-120.05 288.54,-192.98 302,-213.5 306.06,-219.69 311.74,-224.78 317.98,-228.94"/>
<polygon fill="black" stroke="black" stroke-width="1.2" points="316.33,-232.03 326.73,-234.05 319.86,-225.99 316.33,-232.03"/>
</g>
<!-- smtp -->
<g id="node9" class="node">
<title>smtp</title>
<path fill="#fef3c7" stroke="#d97706" stroke-width="1.5" d="M376.5,-198.5C376.5,-198.5 346.5,-198.5 346.5,-198.5 340.5,-198.5 334.5,-192.5 334.5,-186.5 334.5,-186.5 334.5,-174.5 334.5,-174.5 334.5,-168.5 340.5,-162.5 346.5,-162.5 346.5,-162.5 376.5,-162.5 376.5,-162.5 382.5,-162.5 388.5,-168.5 388.5,-174.5 388.5,-174.5 388.5,-186.5 388.5,-186.5 388.5,-192.5 382.5,-198.5 376.5,-198.5"/>
<text text-anchor="middle" x="361.5" y="-183.5" font-family="Helvetica,sans-Serif" font-size="10.00">SMTP</text>
<text text-anchor="middle" x="361.5" y="-172.5" font-family="Helvetica,sans-Serif" font-size="10.00">Server</text>
</g>
<!-- daily&#45;&gt;smtp -->
<g id="edge2" class="edge">
<title>daily&#45;&gt;smtp</title>
<path fill="none" stroke="black" stroke-width="1.2" d="M62.95,-427.15C65.02,-359.29 75.67,-123.84 125,-71.5 152.15,-42.69 274.41,-54.58 281,-59.5 294.75,-69.76 287.93,-79.83 292,-96.5 297.58,-119.36 288.13,-129.49 302,-148.5 307.87,-156.55 316.41,-162.81 325.16,-167.57"/>
<polygon fill="black" stroke="black" stroke-width="1.2" points="323.73,-170.76 334.25,-171.99 326.79,-164.47 323.73,-170.76"/>
</g>
<!-- beehiiv_svc -->
<g id="node10" class="node">
<title>beehiiv_svc</title>
<path fill="#fef3c7" stroke="#d97706" stroke-width="1.5" d="M376.5,-133.5C376.5,-133.5 346.5,-133.5 346.5,-133.5 340.5,-133.5 334.5,-127.5 334.5,-121.5 334.5,-121.5 334.5,-109.5 334.5,-109.5 334.5,-103.5 340.5,-97.5 346.5,-97.5 346.5,-97.5 376.5,-97.5 376.5,-97.5 382.5,-97.5 388.5,-103.5 388.5,-109.5 388.5,-109.5 388.5,-121.5 388.5,-121.5 388.5,-127.5 382.5,-133.5 376.5,-133.5"/>
<text text-anchor="middle" x="361.5" y="-113" font-family="Helvetica,sans-Serif" font-size="10.00">Beehiiv</text>
</g>
<!-- daily&#45;&gt;beehiiv_svc -->
<g id="edge3" class="edge">
<title>daily&#45;&gt;beehiiv_svc</title>
<path fill="none" stroke="black" stroke-width="1.2" d="M62.52,-427.29C63.02,-356.56 68.73,-101.42 125,-49.5 144,-31.97 251.99,-28.39 281,-45.5 297.62,-55.31 288.33,-69.89 302,-83.5 308.69,-90.16 317.05,-95.82 325.34,-100.45"/>
<polygon fill="black" stroke="black" stroke-width="1.2" points="323.73,-103.56 334.22,-105.06 326.96,-97.35 323.73,-103.56"/>
</g>
<!-- gh_api -->
<g id="node12" class="node">
<title>gh_api</title>
<path fill="#fef3c7" stroke="#d97706" stroke-width="1.5" d="M376.5,-68.5C376.5,-68.5 346.5,-68.5 346.5,-68.5 340.5,-68.5 334.5,-62.5 334.5,-56.5 334.5,-56.5 334.5,-44.5 334.5,-44.5 334.5,-38.5 340.5,-32.5 346.5,-32.5 346.5,-32.5 376.5,-32.5 376.5,-32.5 382.5,-32.5 388.5,-38.5 388.5,-44.5 388.5,-44.5 388.5,-56.5 388.5,-56.5 388.5,-62.5 382.5,-68.5 376.5,-68.5"/>
<text text-anchor="middle" x="361.5" y="-53.5" font-family="Helvetica,sans-Serif" font-size="10.00">GitHub</text>
<text text-anchor="middle" x="361.5" y="-42.5" font-family="Helvetica,sans-Serif" font-size="10.00">API</text>
</g>
<!-- daily&#45;&gt;gh_api -->
<g id="edge5" class="edge">
<title>daily&#45;&gt;gh_api</title>
<path fill="none" stroke="black" stroke-width="1.2" d="M62.68,-427.23C63.78,-354.99 71.44,-90.37 125,-30.5 174.71,25.06 272.48,-8.32 325.06,-32.38"/>
<polygon fill="black" stroke="black" stroke-width="1.2" points="323.79,-35.65 334.33,-36.74 326.77,-29.32 323.79,-35.65"/>
<text text-anchor="middle" x="226" y="-16.3" font-family="Helvetica,sans-Serif" font-size="9.00">website push</text>
</g>
<!-- ghpages -->
<g id="node13" class="node">
<title>ghpages</title>
<path fill="#d1fae5" stroke="#059669" stroke-width="1.5" d="M542,-528.5C542,-528.5 462,-528.5 462,-528.5 456,-528.5 450,-522.5 450,-516.5 450,-516.5 450,-504.5 450,-504.5 450,-498.5 456,-492.5 462,-492.5 462,-492.5 542,-492.5 542,-492.5 548,-492.5 554,-498.5 554,-504.5 554,-504.5 554,-516.5 554,-516.5 554,-522.5 548,-528.5 542,-528.5"/>
<text text-anchor="middle" x="502" y="-513.5" font-family="Helvetica,sans-Serif" font-size="10.00">GitHub Pages</text>
<text text-anchor="middle" x="502" y="-502.5" font-family="Helvetica,sans-Serif" font-size="10.00">thevalvewire.com</text>
</g>
<!-- daily&#45;&gt;ghpages -->
<g id="edge4" class="edge">
<title>daily&#45;&gt;ghpages</title>
<path fill="none" stroke="black" stroke-width="1.2" d="M85.87,-463.54C99.92,-473.99 116.65,-485.64 125,-488.5 230.89,-524.83 363.3,-522.41 439.41,-516.82"/>
<polygon fill="black" stroke="black" stroke-width="1.2" points="440.07,-520.28 449.77,-516.01 439.53,-513.3 440.07,-520.28"/>
</g>
<!-- weekly -->
<g id="node2" class="node">
<title>weekly</title>
<path fill="#dbeafe" stroke="#2563eb" stroke-width="1.5" d="M92.5,-593.5C92.5,-593.5 30.5,-593.5 30.5,-593.5 24.5,-593.5 18.5,-587.5 18.5,-581.5 18.5,-581.5 18.5,-569.5 18.5,-569.5 18.5,-563.5 24.5,-557.5 30.5,-557.5 30.5,-557.5 92.5,-557.5 92.5,-557.5 98.5,-557.5 104.5,-563.5 104.5,-569.5 104.5,-569.5 104.5,-581.5 104.5,-581.5 104.5,-587.5 98.5,-593.5 92.5,-593.5"/>
<text text-anchor="middle" x="61.5" y="-578.5" font-family="Helvetica,sans-Serif" font-size="10.00">weekly&#45;digest</text>
<text text-anchor="middle" x="61.5" y="-567.5" font-family="Helvetica,sans-Serif" font-size="10.00">Saturday</text>
</g>
<!-- podcast -->
<g id="node3" class="node">
<title>podcast</title>
<path fill="#dbeafe" stroke="#2563eb" stroke-width="1.5" d="M261,-463.5C261,-463.5 191,-463.5 191,-463.5 185,-463.5 179,-457.5 179,-451.5 179,-451.5 179,-439.5 179,-439.5 179,-433.5 185,-427.5 191,-427.5 191,-427.5 261,-427.5 261,-427.5 267,-427.5 273,-433.5 273,-439.5 273,-439.5 273,-451.5 273,-451.5 273,-457.5 267,-463.5 261,-463.5"/>
<text text-anchor="middle" x="226" y="-448.5" font-family="Helvetica,sans-Serif" font-size="10.00">weekly&#45;podcast</text>
<text text-anchor="middle" x="226" y="-437.5" font-family="Helvetica,sans-Serif" font-size="10.00">After weekly</text>
</g>
<!-- weekly&#45;&gt;podcast -->
<g id="edge10" class="edge">
<title>weekly&#45;&gt;podcast</title>
<path fill="none" stroke="black" stroke-width="1.2" stroke-dasharray="5,2" d="M88.61,-557.19C94.7,-552.79 101.13,-548.04 107,-543.5 138.09,-519.46 172.56,-490.56 196.17,-470.4"/>
<polygon fill="black" stroke="black" stroke-width="1.2" points="198.73,-472.82 204.05,-463.66 194.17,-467.5 198.73,-472.82"/>
<text text-anchor="middle" x="143" y="-530.3" font-family="Helvetica,sans-Serif" font-size="9.00">triggers</text>
</g>
<!-- weekly&#45;&gt;anthropic -->
<g id="edge7" class="edge">
<title>weekly&#45;&gt;anthropic</title>
<path fill="none" stroke="black" stroke-width="1.2" d="M93.5,-557.15C98.52,-553.14 103.28,-548.56 107,-543.5 114.35,-533.5 169.26,-340.78 177.5,-331.5 214.43,-289.92 275.75,-266.87 317.11,-255.33"/>
<polygon fill="black" stroke="black" stroke-width="1.2" points="318.16,-258.68 326.92,-252.71 316.35,-251.92 318.16,-258.68"/>
</g>
<!-- weekly&#45;&gt;smtp -->
<g id="edge8" class="edge">
<title>weekly&#45;&gt;smtp</title>
<path fill="none" stroke="black" stroke-width="1.2" d="M94.89,-557.39C99.64,-553.4 103.95,-548.77 107,-543.5 145.98,-476.23 103.82,-444.31 125,-369.5 139.65,-317.76 138.79,-297.82 177.5,-260.5 219.07,-220.43 283.98,-198.64 324.28,-188.31"/>
<polygon fill="black" stroke="black" stroke-width="1.2" points="325.34,-191.65 334.22,-185.86 323.67,-184.85 325.34,-191.65"/>
</g>
<!-- weekly&#45;&gt;ghpages -->
<g id="edge9" class="edge">
<title>weekly&#45;&gt;ghpages</title>
<path fill="none" stroke="black" stroke-width="1.2" d="M104.58,-572.52C171.69,-567.52 307.04,-556.4 421,-540.5 425.92,-539.81 427.23,-539.89 432,-538.5 438.11,-536.73 444.42,-534.6 450.63,-532.32"/>
<polygon fill="black" stroke="black" stroke-width="1.2" points="452.17,-535.48 460.26,-528.64 449.67,-528.94 452.17,-535.48"/>
</g>
<!-- podcast&#45;&gt;anthropic -->
<g id="edge11" class="edge">
<title>podcast&#45;&gt;anthropic</title>
<path fill="none" stroke="black" stroke-width="1.2" d="M272.69,-427.12C275.82,-424.59 278.66,-421.72 281,-418.5 299.48,-393.04 284.16,-304.41 302,-278.5 306.18,-272.43 311.87,-267.34 318.06,-263.12"/>
<polygon fill="black" stroke="black" stroke-width="1.2" points="319.97,-266.06 326.73,-257.9 316.36,-260.06 319.97,-266.06"/>
</g>
<!-- openai -->
<g id="node8" class="node">
<title>openai</title>
<path fill="#fef3c7" stroke="#d97706" stroke-width="1.5" d="M394,-393.5C394,-393.5 329,-393.5 329,-393.5 323,-393.5 317,-387.5 317,-381.5 317,-381.5 317,-369.5 317,-369.5 317,-363.5 323,-357.5 329,-357.5 329,-357.5 394,-357.5 394,-357.5 400,-357.5 406,-363.5 406,-369.5 406,-369.5 406,-381.5 406,-381.5 406,-387.5 400,-393.5 394,-393.5"/>
<text text-anchor="middle" x="361.5" y="-378.5" font-family="Helvetica,sans-Serif" font-size="10.00">OpenAI</text>
<text text-anchor="middle" x="361.5" y="-367.5" font-family="Helvetica,sans-Serif" font-size="10.00">TTS + Whisper</text>
</g>
<!-- podcast&#45;&gt;openai -->
<g id="edge12" class="edge">
<title>podcast&#45;&gt;openai</title>
<path fill="none" stroke="black" stroke-width="1.2" d="M263.68,-427.36C269.49,-424.43 275.42,-421.4 281,-418.5 293.31,-412.1 306.61,-404.98 318.74,-398.42"/>
<polygon fill="black" stroke="black" stroke-width="1.2" points="320.63,-401.37 327.75,-393.52 317.29,-395.22 320.63,-401.37"/>
</g>
<!-- gh_rel -->
<g id="node14" class="node">
<title>gh_rel</title>
<path fill="#d1fae5" stroke="#059669" stroke-width="1.5" d="M520.5,-463.5C520.5,-463.5 483.5,-463.5 483.5,-463.5 477.5,-463.5 471.5,-457.5 471.5,-451.5 471.5,-451.5 471.5,-439.5 471.5,-439.5 471.5,-433.5 477.5,-427.5 483.5,-427.5 483.5,-427.5 520.5,-427.5 520.5,-427.5 526.5,-427.5 532.5,-433.5 532.5,-439.5 532.5,-439.5 532.5,-451.5 532.5,-451.5 532.5,-457.5 526.5,-463.5 520.5,-463.5"/>
<text text-anchor="middle" x="502" y="-448.5" font-family="Helvetica,sans-Serif" font-size="10.00">GitHub</text>
<text text-anchor="middle" x="502" y="-437.5" font-family="Helvetica,sans-Serif" font-size="10.00">Releases</text>
</g>
<!-- podcast&#45;&gt;gh_rel -->
<g id="edge13" class="edge">
<title>podcast&#45;&gt;gh_rel</title>
<path fill="none" stroke="black" stroke-width="1.2" d="M273.17,-445.5C325.85,-445.5 411.15,-445.5 461.08,-445.5"/>
<polygon fill="black" stroke="black" stroke-width="1.2" points="461.17,-449 471.17,-445.5 461.17,-442 461.17,-449"/>
</g>
<!-- monitor_wf -->
<g id="node4" class="node">
<title>monitor_wf</title>
<path fill="#dbeafe" stroke="#2563eb" stroke-width="1.5" d="M93.5,-528.5C93.5,-528.5 29.5,-528.5 29.5,-528.5 23.5,-528.5 17.5,-522.5 17.5,-516.5 17.5,-516.5 17.5,-504.5 17.5,-504.5 17.5,-498.5 23.5,-492.5 29.5,-492.5 29.5,-492.5 93.5,-492.5 93.5,-492.5 99.5,-492.5 105.5,-498.5 105.5,-504.5 105.5,-504.5 105.5,-516.5 105.5,-516.5 105.5,-522.5 99.5,-528.5 93.5,-528.5"/>
<text text-anchor="middle" x="61.5" y="-513.5" font-family="Helvetica,sans-Serif" font-size="10.00">monitor</text>
<text text-anchor="middle" x="61.5" y="-502.5" font-family="Helvetica,sans-Serif" font-size="10.00">On completion</text>
</g>
<!-- monitor_wf&#45;&gt;anthropic -->
<g id="edge14" class="edge">
<title>monitor_wf&#45;&gt;anthropic</title>
<path fill="none" stroke="black" stroke-width="1.2" d="M95.54,-492.13C100.09,-488.22 104.16,-483.67 107,-478.5 123.93,-447.67 99.44,-186.65 125,-162.5 158.58,-130.78 178.36,-167.64 292,-215.5 300.26,-218.98 309.04,-222.76 317.47,-226.43"/>
<polygon fill="black" stroke="black" stroke-width="1.2" points="316.22,-229.71 326.79,-230.51 319.03,-223.29 316.22,-229.71"/>
</g>
<!-- telegram -->
<g id="node11" class="node">
<title>telegram</title>
<path fill="#fef3c7" stroke="#d97706" stroke-width="1.5" d="M380.5,-328.5C380.5,-328.5 342.5,-328.5 342.5,-328.5 336.5,-328.5 330.5,-322.5 330.5,-316.5 330.5,-316.5 330.5,-304.5 330.5,-304.5 330.5,-298.5 336.5,-292.5 342.5,-292.5 342.5,-292.5 380.5,-292.5 380.5,-292.5 386.5,-292.5 392.5,-298.5 392.5,-304.5 392.5,-304.5 392.5,-316.5 392.5,-316.5 392.5,-322.5 386.5,-328.5 380.5,-328.5"/>
<text text-anchor="middle" x="361.5" y="-313.5" font-family="Helvetica,sans-Serif" font-size="10.00">Telegram</text>
<text text-anchor="middle" x="361.5" y="-302.5" font-family="Helvetica,sans-Serif" font-size="10.00">API</text>
</g>
<!-- monitor_wf&#45;&gt;telegram -->
<g id="edge15" class="edge">
<title>monitor_wf&#45;&gt;telegram</title>
<path fill="none" stroke="black" stroke-width="1.2" d="M92.06,-492.46C97.46,-488.31 102.72,-483.61 107,-478.5 153.53,-422.95 118.48,-373.54 177.5,-331.5 219.22,-301.78 280.38,-301.03 320.32,-304.63"/>
<polygon fill="black" stroke="black" stroke-width="1.2" points="320.18,-308.14 330.49,-305.69 320.9,-301.18 320.18,-308.14"/>
</g>
<!-- summary_wf -->
<g id="node5" class="node">
<title>summary_wf</title>
<path fill="#dbeafe" stroke="#2563eb" stroke-width="1.5" d="M95,-658.5C95,-658.5 28,-658.5 28,-658.5 22,-658.5 16,-652.5 16,-646.5 16,-646.5 16,-634.5 16,-634.5 16,-628.5 22,-622.5 28,-622.5 28,-622.5 95,-622.5 95,-622.5 101,-622.5 107,-628.5 107,-634.5 107,-634.5 107,-646.5 107,-646.5 107,-652.5 101,-658.5 95,-658.5"/>
<text text-anchor="middle" x="61.5" y="-643.5" font-family="Helvetica,sans-Serif" font-size="10.00">daily&#45;summary</text>
<text text-anchor="middle" x="61.5" y="-632.5" font-family="Helvetica,sans-Serif" font-size="10.00">Morning</text>
</g>
<!-- summary_wf&#45;&gt;telegram -->
<g id="edge16" class="edge">
<title>summary_wf&#45;&gt;telegram</title>
<path fill="none" stroke="black" stroke-width="1.2" d="M106.77,-622.44C124.33,-614.39 144.28,-604.1 161,-592.5 221.44,-550.56 246.86,-543.66 281,-478.5 295.09,-451.61 284.71,-368.46 302,-343.5 306.96,-336.34 314.02,-330.54 321.51,-325.93"/>
<polygon fill="black" stroke="black" stroke-width="1.2" points="323.34,-328.92 330.42,-321.04 319.97,-322.78 323.34,-328.92"/>
</g>
<!-- bot -->
<g id="node6" class="node">
<title>bot</title>
<path fill="#fce7f3" stroke="#db2777" stroke-width="1.5" d="M254.5,-382.5C254.5,-382.5 197.5,-382.5 197.5,-382.5 191.5,-382.5 185.5,-376.5 185.5,-370.5 185.5,-370.5 185.5,-358.5 185.5,-358.5 185.5,-352.5 191.5,-346.5 197.5,-346.5 197.5,-346.5 254.5,-346.5 254.5,-346.5 260.5,-346.5 266.5,-352.5 266.5,-358.5 266.5,-358.5 266.5,-370.5 266.5,-370.5 266.5,-376.5 260.5,-382.5 254.5,-382.5"/>
<text text-anchor="middle" x="226" y="-367.5" font-family="Helvetica,sans-Serif" font-size="10.00">Telegram Bot</text>
<text text-anchor="middle" x="226" y="-356.5" font-family="Helvetica,sans-Serif" font-size="10.00">Always&#45;on</text>
</g>
<!-- bot&#45;&gt;anthropic -->
<g id="edge18" class="edge">
<title>bot&#45;&gt;anthropic</title>
<path fill="none" stroke="black" stroke-width="1.2" d="M257.05,-346.35C265.56,-340.19 274.32,-332.75 281,-324.5 295.14,-307.04 286.8,-295.06 302,-278.5 306.66,-273.42 312.29,-268.93 318.19,-265.02"/>
<polygon fill="black" stroke="black" stroke-width="1.2" points="320.21,-267.89 326.95,-259.72 316.58,-261.9 320.21,-267.89"/>
</g>
<!-- bot&#45;&gt;telegram -->
<g id="edge17" class="edge">
<title>bot&#45;&gt;telegram</title>
<path fill="none" stroke="black" stroke-width="1.2" d="M266.69,-348.45C283.65,-341.58 303.42,-333.59 320.43,-326.71"/>
<polygon fill="black" stroke="black" stroke-width="1.2" points="322.12,-329.8 330.08,-322.81 319.49,-323.31 322.12,-329.8"/>
</g>
<!-- vercel -->
<g id="node15" class="node">
<title>vercel</title>
<path fill="#cffafe" stroke="#0891b2" stroke-width="1.5" d="M518,-398.5C518,-398.5 486,-398.5 486,-398.5 480,-398.5 474,-392.5 474,-386.5 474,-386.5 474,-374.5 474,-374.5 474,-368.5 480,-362.5 486,-362.5 486,-362.5 518,-362.5 518,-362.5 524,-362.5 530,-368.5 530,-374.5 530,-374.5 530,-386.5 530,-386.5 530,-392.5 524,-398.5 518,-398.5"/>
<text text-anchor="middle" x="502" y="-383.5" font-family="Helvetica,sans-Serif" font-size="10.00">Vercel</text>
<text text-anchor="middle" x="502" y="-372.5" font-family="Helvetica,sans-Serif" font-size="10.00">Website</text>
</g>
<!-- gh_api&#45;&gt;vercel -->
<g id="edge6" class="edge">
<title>gh_api&#45;&gt;vercel</title>
<path fill="none" stroke="black" stroke-width="1.2" d="M388.71,-59.87C400.14,-65.17 412.78,-72.91 421,-83.5 484.99,-165.93 497.9,-295.56 500.43,-352.31"/>
<polygon fill="black" stroke="black" stroke-width="1.2" points="496.93,-352.48 500.8,-362.35 503.93,-352.22 496.93,-352.48"/>
</g>
</g>
</svg>
